<svg width="1207" height="241" viewBox="0 0 1207 241" fill="none" xmlns="http://www.w3.org/2000/svg">
  <!-- Don't even you dare trying to steal this because I'll track you down -->
  <style>
    svg {
      background-color: #000000;
    }
 @keyframes flyout1 {
  0% {
    transform: translateX(calc(50% - calc(367px / 2))) translateY(100%);
    opacity: 1;
  }
  1.00% {
    transform: translateX(calc(50% - calc(367px / 2))) translateY(100%) scale(1.0);
    opacity: 1;
  }
  13.50% {
    transform: translateX(calc(50% - calc(367px / 2))) translateY(calc(50% - calc(61px / 2))) 
     scale(1.00);
    opacity: 1;
  }
  50% {
    transform: translateX(calc(calc(50% - calc(367px / 2)) - 5px)) translateY(calc(50% - calc(61px / 2))) 
     scale(1.03);
    opacity: 1;
  }
  67% {
    transform: translateX(calc(50% - calc(367px / 2))) translateY(calc(50% - calc(61px / 2))) scale(1.00);
    opacity: 1;
  }
  98% {
    transform: translateX(calc(50% - calc(367px / 2))) translateY(100%) scale(1.0);
    opacity: 0;
  }
  100% {
    transform: translateX(calc(50% - calc(367px / 2))) translateY(100%);
    opacity: 0;
  }
}

@keyframes flyout2 {
  0% {
    transform: translateX(calc(50% - calc(367px / 2))) translateY(100%);
    opacity: 1;
  }
  2.25% {
    transform: translateX(calc(50% - calc(367px / 2))) translateY(100%) scale(1.0);
    opacity: 1;
  }
  14.75% {
    transform: translateX(calc(50% - calc(367px / 2))) translateY(calc(50% - calc(61px / 2))) 
     scale(1.00);
    opacity: 1;
  }
  50% {
    transform: translateX(calc(calc(50% - calc(367px / 2)) - 5px)) translateY(calc(50% - calc(61px / 2))) 
     scale(1.03);
    opacity: 1;
  }
  66% {
    transform: translateX(calc(50% - calc(367px / 2))) translateY(calc(50% - calc(61px / 2))) scale(1.00);
    opacity: 1;
  }
  96% {
    transform: translateX(calc(50% - calc(367px / 2))) translateY(100%) scale(1.0);
    opacity: 0;
  }
  100% {
    transform: translateX(calc(50% - calc(367px / 2))) translateY(100%);
    opacity: 0;
  }
}

@keyframes flyout3 {
  0% {
    transform: translateX(calc(50% - calc(367px / 2))) translateY(100%);
    opacity: 1;
  }
  3.50% {
    transform: translateX(calc(50% - calc(367px / 2))) translateY(100%) scale(1.0);
    opacity: 1;
  }
  16.00% {
    transform: translateX(calc(50% - calc(367px / 2))) translateY(calc(50% - calc(61px / 2))) 
     scale(1.00);
    opacity: 1;
  }
  50% {
    transform: translateX(calc(calc(50% - calc(367px / 2)) - 5px)) translateY(calc(50% - calc(61px / 2))) 
     scale(1.03);
    opacity: 1;
  }
  67% {
    transform: translateX(calc(50% - calc(367px / 2))) translateY(calc(50% - calc(61px / 2))) scale(1.00);
    opacity: 1;
  }
  95% {
    transform: translateX(calc(50% - calc(367px / 2))) translateY(100%) scale(1.0);
    opacity: 0;
  }
  100% {
    transform: translateX(calc(50% - calc(367px / 2))) translateY(100%);
    opacity: 0;
  }
}

@keyframes flyout4 {
  0% {
    transform: translateX(calc(50% - calc(367px / 2))) translateY(100%);
    opacity: 1;
  }
  4.75% {
    transform: translateX(calc(50% - calc(367px / 2))) translateY(100%) scale(1.0);
    opacity: 1;
  }
  17.25% {
    transform: translateX(calc(50% - calc(367px / 2))) translateY(calc(50% - calc(61px / 2))) 
     scale(1.00);
    opacity: 1;
  }
  50% {
    transform: translateX(calc(calc(50% - calc(367px / 2)) - 5px)) translateY(calc(50% - calc(61px / 2))) 
     scale(1.03);
    opacity: 1;
  }
  66% {
    transform: translateX(calc(50% - calc(367px / 2))) translateY(calc(50% - calc(61px / 2))) scale(1.00);
    opacity: 1;
  }
  97% {
    transform: translateX(calc(50% - calc(367px / 2))) translateY(100%) scale(1.0);
    opacity: 0;
  }
  100% {
    transform: translateX(calc(50% - calc(367px / 2))) translateY(100%);
    opacity: 0;
  }
}

@keyframes flyout5 {
  0% {
    transform: translateX(calc(50% - calc(367px / 2))) translateY(100%);
    opacity: 1;
  }
  6.00% {
    transform: translateX(calc(50% - calc(367px / 2))) translateY(100%) scale(1.0);
    opacity: 1;
  }
  18.50% {
    transform: translateX(calc(50% - calc(367px / 2))) translateY(calc(50% - calc(61px / 2))) 
     scale(1.00);
    opacity: 1;
  }
  50% {
    transform: translateX(calc(calc(50% - calc(367px / 2)) - 5px)) translateY(calc(50% - calc(61px / 2))) 
     scale(1.03);
    opacity: 1;
  }
  69% {
    transform: translateX(calc(50% - calc(367px / 2))) translateY(calc(50% - calc(61px / 2))) scale(1.00);
    opacity: 1;
  }
  91% {
    transform: translateX(calc(50% - calc(367px / 2))) translateY(100%) scale(1.0);
    opacity: 0;
  }
  100% {
    transform: translateX(calc(50% - calc(367px / 2))) translateY(100%);
    opacity: 0;
  }
}

@keyframes flyout6 {
  0% {
    transform: translateX(calc(50% - calc(367px / 2))) translateY(100%);
    opacity: 1;
  }
  7.25% {
    transform: translateX(calc(50% - calc(367px / 2))) translateY(100%) scale(1.0);
    opacity: 1;
  }
  19.75% {
    transform: translateX(calc(50% - calc(367px / 2))) translateY(calc(50% - calc(61px / 2))) 
     scale(1.00);
    opacity: 1;
  }
  50% {
    transform: translateX(calc(calc(50% - calc(367px / 2)) - 5px)) translateY(calc(50% - calc(61px / 2))) 
     scale(1.03);
    opacity: 1;
  }
  68% {
    transform: translateX(calc(50% - calc(367px / 2))) translateY(calc(50% - calc(61px / 2))) scale(1.00);
    opacity: 1;
  }
  92% {
    transform: translateX(calc(50% - calc(367px / 2))) translateY(100%) scale(1.0);
    opacity: 0;
  }
  100% {
    transform: translateX(calc(50% - calc(367px / 2))) translateY(100%);
    opacity: 0;
  }
}

@keyframes flyout7 {
  0% {
    transform: translateX(calc(50% - calc(367px / 2))) translateY(100%);
    opacity: 1;
  }
  8.50% {
    transform: translateX(calc(50% - calc(367px / 2))) translateY(100%) scale(1.0);
    opacity: 1;
  }
  21.00% {
    transform: translateX(calc(50% - calc(367px / 2))) translateY(calc(50% - calc(61px / 2))) 
     scale(1.00);
    opacity: 1;
  }
  50% {
    transform: translateX(calc(calc(50% - calc(367px / 2)) - 5px)) translateY(calc(50% - calc(61px / 2))) 
     scale(1.03);
    opacity: 1;
  }
  68% {
    transform: translateX(calc(50% - calc(367px / 2))) translateY(calc(50% - calc(61px / 2))) scale(1.00);
    opacity: 1;
  }
  97% {
    transform: translateX(calc(50% - calc(367px / 2))) translateY(100%) scale(1.0);
    opacity: 0;
  }
  100% {
    transform: translateX(calc(50% - calc(367px / 2))) translateY(100%);
    opacity: 0;
  }
}

@keyframes flyout8 {
  0% {
    transform: translateX(calc(50% - calc(367px / 2))) translateY(100%);
    opacity: 1;
  }
  9.75% {
    transform: translateX(calc(50% - calc(367px / 2))) translateY(100%) scale(1.0);
    opacity: 1;
  }
  22.25% {
    transform: translateX(calc(50% - calc(367px / 2))) translateY(calc(50% - calc(61px / 2))) 
     scale(1.00);
    opacity: 1;
  }
  50% {
    transform: translateX(calc(calc(50% - calc(367px / 2)) - 5px)) translateY(calc(50% - calc(61px / 2))) 
     scale(1.03);
    opacity: 1;
  }
  65% {
    transform: translateX(calc(50% - calc(367px / 2))) translateY(calc(50% - calc(61px / 2))) scale(1.00);
    opacity: 1;
  }
  96% {
    transform: translateX(calc(50% - calc(367px / 2))) translateY(100%) scale(1.0);
    opacity: 0;
  }
  100% {
    transform: translateX(calc(50% - calc(367px / 2))) translateY(100%);
    opacity: 0;
  }
}

@keyframes flyout9 {
  0% {
    transform: translateX(calc(50% - calc(367px / 2))) translateY(100%);
    opacity: 1;
  }
  11.00% {
    transform: translateX(calc(50% - calc(367px / 2))) translateY(100%) scale(1.0);
    opacity: 1;
  }
  23.50% {
    transform: translateX(calc(50% - calc(367px / 2))) translateY(calc(50% - calc(61px / 2))) 
     scale(1.00);
    opacity: 1;
  }
  50% {
    transform: translateX(calc(calc(50% - calc(367px / 2)) - 5px)) translateY(calc(50% - calc(61px / 2))) 
     scale(1.03);
    opacity: 1;
  }
  66% {
    transform: translateX(calc(50% - calc(367px / 2))) translateY(calc(50% - calc(61px / 2))) scale(1.00);
    opacity: 1;
  }
  96% {
    transform: translateX(calc(50% - calc(367px / 2))) translateY(100%) scale(1.0);
    opacity: 0;
  }
  100% {
    transform: translateX(calc(50% - calc(367px / 2))) translateY(100%);
    opacity: 0;
  }
}

@keyframes flyout10 {
  0% {
    transform: translateX(calc(50% - calc(367px / 2))) translateY(100%);
    opacity: 1;
  }
  12.25% {
    transform: translateX(calc(50% - calc(367px / 2))) translateY(100%) scale(1.0);
    opacity: 1;
  }
  24.75% {
    transform: translateX(calc(50% - calc(367px / 2))) translateY(calc(50% - calc(61px / 2))) 
     scale(1.00);
    opacity: 1;
  }
  50% {
    transform: translateX(calc(calc(50% - calc(367px / 2)) - 5px)) translateY(calc(50% - calc(61px / 2))) 
     scale(1.03);
    opacity: 1;
  }
  69% {
    transform: translateX(calc(50% - calc(367px / 2))) translateY(calc(50% - calc(61px / 2))) scale(1.00);
    opacity: 1;
  }
  93% {
    transform: translateX(calc(50% - calc(367px / 2))) translateY(100%) scale(1.0);
    opacity: 0;
  }
  100% {
    transform: translateX(calc(50% - calc(367px / 2))) translateY(100%);
    opacity: 0;
  }
}

@keyframes flyout11 {
  0% {
    transform: translateX(calc(50% - calc(367px / 2))) translateY(100%);
    opacity: 1;
  }
  13.50% {
    transform: translateX(calc(50% - calc(367px / 2))) translateY(100%) scale(1.0);
    opacity: 1;
  }
  26.00% {
    transform: translateX(calc(50% - calc(367px / 2))) translateY(calc(50% - calc(61px / 2))) 
     scale(1.00);
    opacity: 1;
  }
  50% {
    transform: translateX(calc(calc(50% - calc(367px / 2)) - 5px)) translateY(calc(50% - calc(61px / 2))) 
     scale(1.03);
    opacity: 1;
  }
  65% {
    transform: translateX(calc(50% - calc(367px / 2))) translateY(calc(50% - calc(61px / 2))) scale(1.00);
    opacity: 1;
  }
  94% {
    transform: translateX(calc(50% - calc(367px / 2))) translateY(100%) scale(1.0);
    opacity: 0;
  }
  100% {
    transform: translateX(calc(50% - calc(367px / 2))) translateY(100%);
    opacity: 0;
  }
}

@keyframes flyout12 {
  0% {
    transform: translateX(calc(50% - calc(367px / 2))) translateY(100%);
    opacity: 1;
  }
  14.75% {
    transform: translateX(calc(50% - calc(367px / 2))) translateY(100%) scale(1.0);
    opacity: 1;
  }
  27.25% {
    transform: translateX(calc(50% - calc(367px / 2))) translateY(calc(50% - calc(61px / 2))) 
     scale(1.00);
    opacity: 1;
  }
  50% {
    transform: translateX(calc(calc(50% - calc(367px / 2)) - 5px)) translateY(calc(50% - calc(61px / 2))) 
     scale(1.03);
    opacity: 1;
  }
  65% {
    transform: translateX(calc(50% - calc(367px / 2))) translateY(calc(50% - calc(61px / 2))) scale(1.00);
    opacity: 1;
  }
  90% {
    transform: translateX(calc(50% - calc(367px / 2))) translateY(100%) scale(1.0);
    opacity: 0;
  }
  100% {
    transform: translateX(calc(50% - calc(367px / 2))) translateY(100%);
    opacity: 0;
  }
}

    .text-fragment { 
      fill: #ffffff;
      /*animation: flyout 6s cubic-bezier(0.33, 1, 0.68, 1);*/
      /*animation-fill-mode: forwards;*/
      animation-iteration-count: infinite;
      animation-duration: 10s;
    }
    #text-letter1 { animation-name: flyout1; }
    #text-letter2 { animation-name: flyout2; }
    #text-letter3 { animation-name: flyout3; }
    #text-letter4 { animation-name: flyout4; }
    #text-letter5 { animation-name: flyout5; }
    #text-letter6 { animation-name: flyout6; }
    #text-letter7 { animation-name: flyout7; }
    #text-letter8 { animation-name: flyout8; }
    #text-letter9 { animation-name: flyout9; }
    #text-letter10 { animation-name: flyout10; }
    #text-letter11 { animation-name: flyout11; }
    #text-letter12 { animation-name: flyout12; }
    #anonymous-mask {
      transform: translateX(calc(100% - 206px));
    }
    @keyframes flickering {
      0% { opacity: 0; }
      6% { opacity: 0.3; }
      12% { opacity: 0.7; }
      19% { opacity: 0.7; }
      26% { opacity: 0.35; }
      30% { opacity: 0.3; }
      31% { opacity: 0.9; }
      38% { opacity: 0.6; }
      50% { opacity: 0.1; }
      62% { opacity: 0.3; }
      71% { opacity: 0.25; }
      72% { opacity: 1.0; }
      75% { opacity: 0.9; }
      85% { opacity: 0.9; }
      93% { opacity: 0.4; }
      100% { opacity: 0; }
    }
    #anonymous-mask {
      animation: flickering 12s infinite;
    }
    .st0{fill:#F4F4EF;}
    .st1{fill:#020302;}
    .st2{fill:#020201;}
    .st3{fill:#C4C8C3;}
    .st4{fill:#797D77;}
    .st5{fill:#181814;}
    .st6{fill:#828A82;}
    .st7{fill:#C2C2C1;}
    .st8{fill:#10120E;}
    .st9{fill:#818682;}
    .st10{fill:#333A32;}
    .st11{fill:#454644;}
    .st12{fill:#5D625C;}
    .st13{fill:#CBCCC7;}
    .st14{fill:#343A33;}
    .st15{fill:#1E2F19;}
    .st16{fill:#455344;}
    .st17{fill:#1F2C1B;}
    .st18{fill:#435243;}
    .st19{fill:#889186;}
    .st20{fill:#687366;}
    .st21{fill:#647064;}
    .st22{fill:#202C1E;}
    .st23{fill:#8C918B;}
    .st24{fill:#1C2D1A;}
    .st25{fill:#B3B7B2;}
    .st26{fill:#657267;}
    .st27{fill:#C1C8BF;}
    .st28{fill:#767D76;}
    .st29{fill:#B0B3AE;}
    .st30{fill:#949691;}
    .st31{fill:#83867E;}
    .st32{fill:#6A6F69;}
    .st33{fill:#424641;}
    .st34{fill:#464D46;}
    .st35{fill:#646F63;}
    .st36{fill:#888D87;}
    .st37{fill:#3C453A;}
    .st38{fill:#222A23;}
    .st39{fill:#5B5E59;}
    .st40{fill:#939892;}
    .st41{fill:#838A80;}
    .st42{fill:#2B312A;}
    .st43{fill:#5A5F59;}
    .st44{fill:#0B1409;}
    .st45{fill:#515850;}
    .st46{fill:#42463F;}
    .st47{fill:#0A0F08;}
    .st48{fill:#41433D;}
    .st49{fill:#182418;}
    .st50{fill:#848482;}
    .st51{fill:#181A17;}
    .st52{fill:#1C1D18;}
    .st53{fill:#091308;}
    .st54{fill:#585F54;}
    .st55{fill:#333431;}
    .st56{fill:#2F332C;}
    .st57{fill:#2E2E2E;}
    .st58{fill:#989F96;}
    .st59{fill:#252725;}
    .st60{fill:#50564F;}
    .st61{fill:#2F312B;}
    .st62{fill:#3B3A3A;}
    .st63{fill:#4E554D;}
    .st64{fill:#525252;}
    .st65{fill:#646464;}
    .st66{fill:#ADB1AC;}
    .st67{fill:#52524F;}
    .st68{fill:#6B6D69;}
    .st69{fill:#5E5E5B;}
    .st70{fill:#060905;}
    .st71{fill:#D4D4D2;}
    .st72{fill:#9F9F9A;}
    .st73{fill:#B6BAB4;}
    .st74{fill:#2B3129;}
    .st75{fill:#989D97;}
    .st76{fill:#CBCCC8;}
    .st77{fill:#B4BAB4;}
    .st78{fill:#1E241C;}
    .st79{fill:#8B8F8A;}
    .st80{fill:#9C9D98;}
    .st81{fill:#7F857F;}
    .st82{fill:#858580;}
    .st83{fill:#BABBB6;}
    .st84{fill:#969692;}
    .st85{fill:#EAEEE8;}
    .st86{fill:#3E423D;}
    .st87{fill:#B0B4AF;}
    .st88{fill:#969B96;}
    .st89{fill:#99A099;}
    .st90{fill:#848580;}
    .st91{fill:#414140;}
    .st92{fill:#5D5E5B;}
    .st93{fill:#828680;}
    .st94{fill:#DDE1DC;}
    .st95{fill:#394833;}
    .st96{fill:#5D675B;}
    .st97{fill:#989E96;}
    .st98{fill:#303C2E;}
    .st99{fill:#616E61;}
    .st10O{fill:#V1TYA;}
    .st100{fill:#4F594B;}
    .st101{fill:#BCC3BB;}
    .st102{fill:#696E68;}
    .st103{fill:#A9AEA8;}
    .st104{fill:#858A84;}
    .st105{fill:#CFD3CD;}
    .st106{fill:#899489;}
    .st107{fill:#EEF0EB;}
    .st108{fill:#B8BDB4;}
    .st109{fill:#DDE1DB;}
    .st110{fill:#020502;}
    .st111{fill:#838882;}
    .st112{fill:#777C76;}
    .st113{fill:#9BA098;}
    .st114{fill:#C9CDC8;}
    .st115{fill:#A9AFA9;}
    .st116{fill:#A1A69D;}
    .st117{fill:#80857F;}
    .st118{fill:#535852;}
    .st119{fill:#EFF1ED;}
    .st120{fill:#B7BBB5;}
    .st121{fill:#686D67;}
    .st122{fill:#D2D6CF;}
    .st123{fill:#555953;}
  </style>
  <g>
    <path class="text-fragment" id="text-letter1" d="M3.3,44.1c-1.6-1.5-2.5-4-2.5-7.2c0-2.8,0.5-5.8,1.6-9.1c1.1-3.3,2.8-6.2,5.3-8.6c2.4-2.4,5.5-3.6,9.3-3.6
      c4.4,0,6.6,1.9,6.6,5.8c0,2.2-0.6,4.3-1.9,6.2c-1.3,1.9-3,3.4-5.1,4.5c-2.1,1.1-4.4,1.8-6.8,1.9c-0.1,1.2-0.1,2-0.1,2.4
      c0,2,0.3,3.3,1,4c0.7,0.7,1.8,1.1,3.3,1.1c2.2,0,4-0.5,5.6-1.5c1.5-1,3.2-2.5,5.1-4.6h2c-4.4,7.4-9.9,11.1-16.5,11.1
      C7.2,46.4,4.9,45.7,3.3,44.1z M10,10.6C9.3,9.9,8.9,9.1,8.9,8c0-1,0.4-1.9,1.1-2.6c0.7-0.7,1.6-1.1,2.6-1.1c1,0,1.9,0.4,2.6,1.1
      C15.9,6.2,16.3,7,16.3,8c0,1-0.4,1.9-1.1,2.6c-0.7,0.7-1.6,1.1-2.6,1.1C11.6,11.7,10.7,11.3,10,10.6z M14.6,29.5
      c1.3-1,2.4-2.2,3.2-3.7c0.8-1.5,1.2-3,1.2-4.7c0-1.6-0.5-2.5-1.5-2.5c-1.4,0-2.9,1.3-4.2,3.8s-2.4,5.4-3,8.6
      C11.8,31,13.2,30.5,14.6,29.5z M20.8,10.6c-0.7-0.7-1-1.6-1-2.6c0-1,0.3-1.9,1-2.6c0.7-0.7,1.6-1.1,2.6-1.1c1,0,1.9,0.4,2.6,1.1
      C26.7,6.2,27.1,7,27.1,8c0,1-0.4,1.9-1.1,2.6c-0.7,0.7-1.6,1.1-2.6,1.1C22.4,11.7,21.5,11.3,20.8,10.6z"/>
    <path class="text-fragment" id="text-letter2" d="M40.9,44.7c-1.2-1.2-1.8-2.8-1.8-4.9c0-0.6,0.1-1.7,0.4-3.4c0.2-1,0.3-1.8,0.3-2.3c0-1.9-0.8-2.9-2.3-2.9
      c-0.5,0-1,0.1-1.5,0.4c-0.5,0.3-1.3,0.9-2.4,1.8L31,46.1h-8.6l6.4-30h8.6l-2.6,11.9c2.7-3.2,4.9-5.6,6.5-7.3
      c1.6-1.7,3.1-2.9,4.4-3.8c1.3-0.9,2.6-1.3,3.9-1.3c2.5,0,3.7,1.3,3.7,4c0,1.2-0.3,2.2-1,2.9c-0.7,0.7-1.6,1-2.8,1
      c-1.1,0-2-0.3-2.5-0.9c-0.6-0.6-0.8-1.3-0.8-2.1c-0.8,0.5-1.4,1-2,1.6s-1.3,1.4-2,2.3c-0.8,1.1-1.7,2.1-2.5,2.9
      c0.8-0.2,1.6-0.2,2.5-0.2c2.1,0,3.5,0.5,4.4,1.4c0.9,0.9,1.3,2.3,1.3,4.2c0,0.6-0.1,1.5-0.4,2.8c-0.2,1.4-0.4,2.4-0.4,3.1
      c0,1.5,0.8,2.2,2.4,2.2c1.1,0,2-0.4,2.7-1.1s1.4-2.1,2.3-4.1h2.5c-2.5,7.4-6.2,11.1-10.9,11.1C43.9,46.4,42.1,45.8,40.9,44.7z"/>
    <path class="text-fragment hloth" id="text-letter3" d="M56.2,44.1c-1.5-1.6-2.3-4-2.3-7.3c0-3,0.6-6.1,1.8-9.3c1.2-3.3,2.9-6,5.3-8.3c2.3-2.3,5.1-3.4,8.4-3.4
      c1.6,0,2.9,0.3,3.7,0.8c0.8,0.6,1.2,1.3,1.2,2.2v0.4l0.7-3.2h8.6l-4.3,20.4C79,37.1,79,37.7,79,38.4c0,1.7,0.8,2.6,2.5,2.6
      c1.1,0,2.1-0.5,2.9-1.6c0.8-1,1.5-2.4,2-4.1h2.5c-1.5,4.3-3.3,7.3-5.5,8.8c-2.2,1.5-4.4,2.3-6.6,2.3c-1.7,0-3-0.5-4-1.4
      c-1-0.9-1.6-2.3-1.8-4.1c-1.2,1.6-2.5,3-3.9,4c-1.4,1-3.1,1.5-5.1,1.5C59.6,46.4,57.7,45.6,56.2,44.1z M68.8,39.2
      c1-0.9,1.7-2.2,2-3.9l2.9-13.6c0-0.5-0.2-1-0.6-1.5c-0.4-0.5-1-0.8-1.9-0.8c-1.6,0-3,0.9-4.3,2.8c-1.3,1.9-2.3,4.1-3,6.7
      c-0.7,2.6-1.1,4.9-1.1,6.9c0,2,0.3,3.3,0.9,3.8c0.6,0.6,1.3,0.8,2.1,0.8C66.8,40.6,67.8,40.1,68.8,39.2z"/>
    <path class="text-fragment" id="text-letter4" d="M90.8,13.8h8.6l-1,4.5c2-1.7,4.3-2.6,7-2.6c2.2,0,4,0.7,5.3,2.2c1.3,1.5,2,3.9,2,7.3c0,3.2-0.5,6.4-1.4,9.6
      c-0.9,3.2-2.5,6-4.7,8.2c-2.2,2.3-5.1,3.4-8.7,3.4c-2.6,0-4.3-0.7-5.1-2.2l-3.1,14.6l-9.1,2.2L90.8,13.8z M101,38.5
      c1.3-1.8,2.2-3.9,2.8-6.4c0.6-2.5,0.9-4.8,0.9-7c0-3.3-1-5-3-5c-0.7,0-1.5,0.3-2.2,0.8c-0.7,0.5-1.4,1.2-1.9,2.2L94,39.8
      c0.3,0.9,1.1,1.4,2.3,1.4C98.2,41.2,99.8,40.3,101,38.5z"/>
    <path class="text-fragment" id="text-letter5" d="M130.9,44.6c-1.2-1.2-1.8-2.7-1.8-4.5c0-1.2,0.5-4,1.4-8.4h-6.7l-3.1,14.4h-8.6l6.4-30h8.6l-2.6,12h6.7l2.7-12
      h8l-3.2,14.9c-0.4,1.7-0.7,3.2-1,4.5c-0.3,1.3-0.4,2.2-0.4,2.6c0,1.7,0.8,2.5,2.4,2.5c1.1,0,2-0.4,2.7-1.1c0.7-0.8,1.5-2.1,2.3-4.1
      h2.5c-2.5,7.4-6.2,11.1-11.2,11.1C133.9,46.4,132.1,45.8,130.9,44.6z"/>
    <path class="text-fragment" id="text-letter6" d="M146.7,44.4c-1.5-1.4-2.2-3.2-2.2-5.6c0-1.2,0.1-2.3,0.4-3.4l4-19.3h8.3l-4.4,21.1c-0.1,0.3-0.2,0.9-0.2,1.7
      c0,1.6,0.9,2.5,2.7,2.5c1.1,0,2.1-0.4,3.1-1.3c1-0.9,1.8-2.1,2.4-3.6c0.6-1.5,0.9-3.2,0.9-5c0-1-0.3-1.8-0.9-2.3
      c-0.5,0.4-1.1,0.5-1.7,0.5c-0.7,0-1.3-0.2-1.8-0.7c-0.5-0.4-0.8-1.1-0.8-1.9c0-0.9,0.3-1.6,1-2c0.7-0.5,1.5-0.7,2.3-0.7
      c0.9,0,1.7,0.1,2.5,0.4c2.6-1.2,5.6-2.8,9.2-5c2.9-1.7,5-2.9,6.2-3.6h3.7l-3.2,14.9c-0.4,1.7-0.7,3.2-1,4.5
      c-0.3,1.3-0.4,2.2-0.4,2.6c0,1.7,0.8,2.5,2.4,2.5c1.1,0,2-0.4,2.7-1.1c0.7-0.8,1.5-2.1,2.3-4.1h2.5c-2.5,7.4-6.2,11.1-11.1,11.1
      c-2.3,0-4.1-0.6-5.3-1.9c-1.2-1.3-1.8-2.8-1.8-4.7c0-1.4,1.1-7.1,3.3-16.9c-1.9,1.2-4.1,2.5-6.7,3.9c1,1.5,1.4,3.5,1.4,6
      c0,1.9-0.5,3.9-1.5,6c-1,2.1-2.5,3.9-4.5,5.4c-2,1.5-4.5,2.2-7.4,2.2C150.3,46.4,148.2,45.7,146.7,44.4z"/>
    <path class="text-fragment" id="text-letter7" d="M185.4,44.6c-1.2-1.2-1.8-3-1.8-5.4c0-1,0.2-2.3,0.5-3.9l4.1-19.3h8.6l-4.3,20.4c-0.1,0.5-0.2,1-0.2,1.5
      c0,1.8,0.6,2.6,1.8,2.6c1.1,0,2.1-0.5,2.9-1.4c0.8-0.9,1.4-2.2,1.9-3.9l4.1-19.3h8.6l-4.3,20.4c-0.2,0.6-0.2,1.2-0.2,1.9
      c0,0.8,0.2,1.4,0.6,1.7c0.4,0.3,1,0.5,1.9,0.5c0.6,0,1.1,0,1.4-0.1c0.3-0.1,0.5-0.2,0.6-0.2c-0.2,2-0.9,3.6-2.1,4.6
      c-1.2,1-2.8,1.6-4.6,1.6c-1.7,0-3-0.5-4-1.5c-1-1-1.6-2.4-1.8-4.2c-1.4,2.2-2.8,3.7-4.3,4.5c-1.5,0.8-3.1,1.2-4.6,1.2
      C188.1,46.4,186.5,45.8,185.4,44.6z M193.9,11.7c-1.4-0.9-2-2.2-2-3.8c0-1.3,0.4-2.4,1.1-3.2c0.7-0.8,1.7-1.2,2.9-1.2
      c1.2,0,2.1,0.3,2.7,0.8c0.7,0.6,1,1.4,1,2.4c0,1.3-0.5,2.2-1.4,2.9c0.5,0.2,1.3,0.2,2.4,0.2c1.9,0,3.7-0.5,5.3-1.6
      c1.6-1.1,2.9-2.9,3.9-5.4h2.5c-1.3,3.8-2.9,6.4-5,7.9c-2.1,1.5-4.6,2.3-7.7,2.3C197.2,13.1,195.3,12.7,193.9,11.7z"/>
    <path class="text-fragment" id="text-letter8" d="M226.3,43.8c-1.7-1.7-2.5-4.2-2.5-7.7c0-3.1,0.7-6.1,2-8.9c1.3-2.8,3.2-5.1,5.7-6.9c2.5-1.8,5.4-2.6,8.8-2.6
      l1,0.1c-0.6-0.8-1.6-1.8-2.9-3.1c-1.5-1.4-2.6-2.7-3.3-3.7s-1.1-2.1-1.1-3.4c0-1.5,0.5-2.6,1.6-3.4c1-0.7,2.7-1.1,4.9-1.1h9.1h1.9
      c1,0,1.8-0.1,2.3-0.2c0.5-0.1,0.9-0.4,1.1-0.8c0.3-0.4,0.5-1,0.8-1.9h2.6c-0.6,3.1-1.3,5.4-2.1,7c-0.8,1.5-1.8,2.6-3,3.1
      c-1.2,0.6-2.9,0.8-5.1,0.8h-5.8c-0.2,0-0.4,0.1-0.6,0.1c-0.1,0.1-0.2,0.3-0.2,0.6c0,0.2,0.3,0.7,1,1.6c1.5,1.8,2.7,3.7,3.8,5.8
      c1,2.1,1.6,4.5,1.6,7.3c0,3-0.6,6.1-1.8,9.2c-1.2,3.1-2.9,5.6-5.1,7.6c-2.2,2-4.7,3-7.6,3C230.4,46.3,228,45.5,226.3,43.8z
      M239.8,37.9c1.1-2,1.9-4.3,2.4-6.8s0.8-4.5,0.8-5.8c0-1.5-0.2-2.6-0.5-3.1c-0.4-0.6-0.9-0.8-1.7-0.8c-1.8,0-3.2,1-4.4,2.9
      s-2.1,4.1-2.7,6.5c-0.6,2.4-0.9,4.3-0.9,5.7c0,1.7,0.2,2.9,0.7,3.5c0.5,0.6,1.3,0.9,2.4,0.9C237.4,40.9,238.7,39.9,239.8,37.9z"/>
    <path class="text-fragment" id="text-letter9" d="M251.9,44.1c-1.5-1.6-2.3-4-2.3-7.3c0-3,0.6-6.1,1.8-9.3c1.2-3.3,2.9-6,5.3-8.3c2.3-2.3,5.1-3.4,8.4-3.4
      c1.6,0,2.9,0.3,3.7,0.8c0.8,0.6,1.2,1.3,1.2,2.2v0.4l0.7-3.2h8.6l-4.3,20.4c-0.2,0.6-0.2,1.2-0.2,1.9c0,1.7,0.8,2.6,2.5,2.6
      c1.1,0,2.1-0.5,2.9-1.6c0.8-1,1.5-2.4,1.9-4.1h2.5c-1.5,4.3-3.3,7.3-5.5,8.8c-2.2,1.5-4.4,2.3-6.6,2.3c-1.7,0-3-0.5-4-1.4
      c-1-0.9-1.6-2.3-1.8-4.1c-1.2,1.6-2.5,3-3.9,4s-3.1,1.5-5.1,1.5C255.4,46.4,253.5,45.6,251.9,44.1z M264.5,39.2
      c1-0.9,1.6-2.2,2-3.9l2.9-13.6c0-0.5-0.2-1-0.6-1.5c-0.4-0.5-1-0.8-1.9-0.8c-1.6,0-3,0.9-4.3,2.8s-2.3,4.1-3,6.7
      c-0.7,2.6-1.1,4.9-1.1,6.9c0,2,0.3,3.3,0.9,3.8c0.6,0.6,1.3,0.8,2.1,0.8C262.5,40.6,263.5,40.1,264.5,39.2z"/>
    <path class="text-fragment" id="text-letter10" d="M283.7,43.8c-1.7-1.7-2.5-4.2-2.5-7.7c0-3.1,0.7-6.1,2-8.9c1.3-2.8,3.2-5.1,5.7-6.9c2.5-1.8,5.4-2.6,8.8-2.6
      l1,0.1c-0.6-0.8-1.6-1.8-2.9-3.1c-1.5-1.4-2.6-2.7-3.3-3.7s-1.1-2.1-1.1-3.4c0-1.5,0.5-2.6,1.6-3.4c1-0.7,2.7-1.1,4.9-1.1h9.1h1.9
      c1,0,1.8-0.1,2.3-0.2c0.5-0.1,0.9-0.4,1.1-0.8c0.3-0.4,0.5-1,0.8-1.9h2.6c-0.6,3.1-1.3,5.4-2.1,7c-0.8,1.5-1.8,2.6-3,3.1
      c-1.2,0.6-2.9,0.8-5.1,0.8h-5.8c-0.2,0-0.4,0.1-0.6,0.1c-0.1,0.1-0.2,0.3-0.2,0.6c0,0.2,0.3,0.7,1,1.6c1.5,1.8,2.7,3.7,3.8,5.8
      c1,2.1,1.6,4.5,1.6,7.3c0,3-0.6,6.1-1.8,9.2c-1.2,3.1-2.9,5.6-5.1,7.6c-2.2,2-4.7,3-7.6,3C287.7,46.3,285.4,45.5,283.7,43.8z
      M297.2,37.9c1.1-2,1.9-4.3,2.4-6.8s0.8-4.5,0.8-5.8c0-1.5-0.2-2.6-0.5-3.1c-0.4-0.6-0.9-0.8-1.7-0.8c-1.8,0-3.2,1-4.4,2.9
      s-2.1,4.1-2.7,6.5c-0.6,2.4-0.9,4.3-0.9,5.7c0,1.7,0.2,2.9,0.7,3.5c0.5,0.6,1.3,0.9,2.4,0.9C294.7,40.9,296.1,39.9,297.2,37.9z"/>
    <!--made by @vityaschel-->
    <path class="text-fragment" id="text-letter11" d="M309.3,44.1c-1.5-1.6-2.3-4-2.3-7.3c0-3,0.6-6.1,1.8-9.3c1.2-3.3,2.9-6,5.3-8.3c2.3-2.3,5.1-3.4,8.4-3.4
      c1.6,0,2.9,0.3,3.7,0.8c0.8,0.6,1.2,1.3,1.2,2.2v0.4l0.7-3.2h8.6l-4.3,20.4c-0.2,0.6-0.2,1.2-0.2,1.9c0,1.7,0.8,2.6,2.5,2.6
      c1.1,0,2.1-0.5,2.9-1.6c0.8-1,1.5-2.4,1.9-4.1h2.5c-1.5,4.3-3.3,7.3-5.5,8.8c-2.2,1.5-4.4,2.3-6.6,2.3c-1.7,0-3-0.5-4-1.4
      c-1-0.9-1.6-2.3-1.8-4.1c-1.2,1.6-2.5,3-3.9,4s-3.1,1.5-5.1,1.5C312.7,46.4,310.8,45.6,309.3,44.1z M321.9,39.2
      c1-0.9,1.6-2.2,2-3.9l2.9-13.6c0-0.5-0.2-1-0.6-1.5c-0.4-0.5-1-0.8-1.9-0.8c-1.6,0-3,0.9-4.3,2.8s-2.3,4.1-3,6.7
      c-0.7,2.6-1.1,4.9-1.1,6.9c0,2,0.3,3.3,0.9,3.8c0.6,0.6,1.3,0.8,2.1,0.8C319.9,40.6,320.9,40.1,321.9,39.2z"/>
    <path class="text-fragment" id="text-letter12" d="M340.6,44.6c-1.2-1.2-1.8-3-1.8-5.4c0-1,0.2-2.3,0.5-3.9l4.1-19.3h8.6l-4.3,20.4c-0.1,0.5-0.2,1-0.2,1.5
      c0,1.8,0.6,2.6,1.8,2.6c1.1,0,2.1-0.5,2.9-1.4c0.8-0.9,1.4-2.2,1.9-3.9l4.1-19.3h8.6l-4.3,20.4c-0.2,0.6-0.2,1.2-0.2,1.9
      c0,0.8,0.2,1.4,0.6,1.7c0.4,0.3,1,0.5,1.9,0.5c0.6,0,1.1,0,1.4-0.1c0.3-0.1,0.5-0.2,0.6-0.2c-0.2,2-0.9,3.6-2.1,4.6
      c-1.2,1-2.8,1.6-4.6,1.6c-1.7,0-3-0.5-4-1.5c-1-1-1.6-2.4-1.8-4.2c-1.4,2.2-2.8,3.7-4.3,4.5c-1.5,0.8-3.1,1.2-4.6,1.2
      C343.4,46.4,341.8,45.8,340.6,44.6z M349.2,11.7c-1.4-0.9-2-2.2-2-3.8c0-1.3,0.4-2.4,1.1-3.2c0.7-0.8,1.7-1.2,2.9-1.2
      c1.2,0,2.1,0.3,2.7,0.8c0.7,0.6,1,1.4,1,2.4c0,1.3-0.5,2.2-1.4,2.9c0.5,0.2,1.3,0.2,2.4,0.2c1.9,0,3.7-0.5,5.3-1.6
      c1.6-1.1,2.9-2.9,3.9-5.4h2.5c-1.3,3.8-3,6.4-5,7.9c-2.1,1.5-4.6,2.3-7.7,2.3C352.5,13.1,350.6,12.7,349.2,11.7z"/>
  </g>
  <g id="anonymous-mask">
    <g>
      <path d="M205.9,156c0,27.1-0.1,54.3,0.1,81.4c0,3-0.6,3.6-3.6,3.6c-67.8-0.1-135.5-0.1-203.3-0.1C-0.9,162-0.9,83-1,4.1
        C-1,0.7-0.3,0,3.1,0c66.3,0.1,132.5,0.1,198.8,0c3.4,0,4.3,0.6,4.1,4.1c-0.4,6-0.1,12-0.1,18c-5,2.5-10.6,2.1-15.9,2.3
        c-11.1,0.5-22.2,0.1-33.2,0.2c-12.5-0.5-24.8-2.4-37.1-4c-3.9-0.5-7.8-1.7-11.8-1.3c-4,0.8-5.6,4.2-7.8,7.1
        c-0.5,1-0.9,2.1-1.3,3.2c-0.7,1.6-1.4,3.1-1.9,4.8c-0.3,6-0.9,12-1.3,18c0,2.6,0,5.2,0,7.8c0.1,6.2-1.3,12.1-2.2,18.2
        c-0.8,5.1-0.7,10.2-0.8,15.3c-0.1,3.4,2,6,3.2,8.9c0.5,1,0.9,2.1,1.4,3.2c0.6,2,2.1,3.3,3.2,5c3.6,3.4,5.4,7.8,7.7,12
        c0.8,1.4,1.3,3,2,4.4c3.8,8.3,8.7,15.9,14.1,23.2c2.9,3.9,5.7,8,8.3,12.3c2.2,3.6,4.9,6.6,8.6,8.7c3.1,3.3,6.4,6.2,10.9,7.4
        c2.3,0.6,4.1,0.5,3.6-2.5c-1-5.9-1.1-11.8-0.1-17.8c0.4-2.5-1-4.5-3.6-5.3c-1-0.4-1.9-0.9-2.8-1.4c-1.1-0.9-2.9-1.9-1.8-3.5
        c1.2-1.9,3.6-1.3,5.5-1.4c8.1,0.1,16.2-0.2,24.3-0.2c8.3,1,15.6-2.6,23.2-4.8c1.8-0.5,3.6-2.1,5.6-0.6c0,4,0,8,0,12
        c-1.3,1.6-3.2,2.6-4.6,4c-2,1.7-3.6,4.1-6.7,3.9c-3.7-1.2-2.9-3.9-1.9-6.4c1.2-3,0.6-4.2-2.6-3c-2.7,1-5.6,0.5-8.2,1.5
        c-1.8,0.5-3.7,0.2-5.5,0.9c-5.4,1.7-3.1,5.4-2.4,8.7c0.5,2.6,0.3,5.2-0.2,7.9c-1.1,5.8-0.3,6.5,5.3,5.3c4-0.1,6.5-3.1,9.3-5.3
        c3.7-2.1,6.9-4.8,9.7-8c1.1-1.1,2.2-2.1,3.2-3.3C202.8,158,203.2,155.5,205.9,156z"/>
      <path class="st0" d="M106,18.1c2.4-1.6,4.8-0.6,7.2-0.2c14.2,2.6,28.4,4,42.8,5.1c3.4,1.2,6.9,0.6,10.3,0.5
        c10.4-0.1,20.9,0.6,31.3-0.4c4-0.4,6.4,1.2,6.9,5.3c0.2,1.3,0.8,2.5,1.5,3.7c0,5.3,0,10.7,0,16c-0.9,1.7-2.4,2.7-4.3,2.9
        c-5.9,0.7-11.3,3.2-16.9,5c-3.6,0.4-6.5,2.5-9.1,4.8c-2,1.7-4,3.3-6.6,4.1c-2,0.4-3,1.7-2.6,3.6c1.3,6.5,0.3,13.2,2,19.6
        c1.3,5.2,3.2,5.8,7.5,2.3c2.2-1.8,4.2-3.8,7.3-3.6c0.8,0,1.6,0.1,2.4,0.3c4.9,0.4,9.7,1.5,14.7,1.5c2,0,4-0.1,5.6,1.4
        c0,5.7,0,11.3,0,17c-3.9,2.7-8.3,1.1-12.4,1.3c-3.2,0.2-5.8,0-5.7,4.5c0,2.7-2.4,4.1-4.8,5c-3.4,0.8-6.5,0.6-9.3-1.8
        c-1.4-1.2-2.7-1.4-3.7,0.4c-2.3,4.3-6.7,5.5-10.7,7.5c-4.6,0.2-9.5,1.8-13.5-2.1c-0.7-0.7-1.5-1.3-2.4-1.6c0.3,0.8,1.1,1,1.6,1.5
        c1.6,1.6,2.5,3.5,1.8,5.8c-1,2.4-3,3.4-5.5,3.7c-10.4,1.3-20.6-4.2-25.1-13.6c-1.7-3.6-1-5.4,2.8-6.1c3.6-0.6,7.2-1.3,10.9-1.1
        c1.6,0,3.3,0.5,4.8-0.3c1.4-0.7,0.9-1.5-0.4-1.7c-12.4-1-24.7-2.5-36.4-6.8c-1.6-0.6-3-1.4-4.1-2.7c-1.2-1.2-2-2.7-2.2-4.4
        c0-4,0-7.9,0-11.9c1.9-3.6,5.1-4.7,8.9-5c0.8,0,1.6,0,2.4,0c0.8,0,1.5,0.2,2.3,0.4c3,1,5.9,2,8.7,3.6c2.5,1.5,5.2,1.9,8,1.7
        c5.7,0.5,11.3,0.1,17,0.2c2.4-0.2,4.8-0.4,6.9-1.8c2.7-2.9,4.3-6.1,3.9-10.2c-0.1-1.5,0.2-3,1-4.3c2.3-3.6,1-5.4-2.8-6.2
        c-0.5-0.1-0.9-0.3-1.3-0.6c-6.5-4.8-14.2-6.9-21.6-9.9c-7.6-2.4-15.1-4.9-23.1-5.3c-3.8-0.2-5.2-2.1-5.2-5.7c0-3.3,0-6.6,1.5-9.7
        c0.6-2.8,2.6-4.8,4-7.1C103.4,21.4,104.6,19.7,106,18.1z"/>
      <path class="st1" d="M130.9,112c-4,0.4-7.9,0.8-11.9,1.1c-3,0.2-3.1,1.3-1.9,3.8c4.4,8.9,14.5,14.6,24.2,13.4
        c2.2-0.3,3.6-1.5,4.8-3.2c0.6-1.3,0.7-3.2,2.7-3c11.1,1.5,20.8-4.4,31.3-6.1c0.6,0,1.3,0,2-0.2c1.9-0.6,4-1.7,5.2,0.7
        c1.2,2.4-0.6,3.9-2.3,5.3c-1.2,1-3.7,1.2-3.2,3.2c0.6,2.1,3,1.5,4.7,1.6c0.7,0,1.3,0,2,0c5.8,1.7,11.7,0,17.5,0.4c0,2.7,0,5.3,0,8
        c-3.3,3.6-8.2,2.1-12,4c-1.6,0.4-3.2,0.5-4.8,0.5c-6.1-0.2-12.3,0.1-18.4-0.2c-2-0.1-5.9,1.4-3.9-4.1c1-2.7-3.2-3.5-5.8-3.6
        c-1.6-0.1-3.2,0.7-4.6,1.7c-1.5,1-1.6,2.8-2.7,4.1c-3.5,1.8-7,0.9-10.6,0.1c-1.9-0.4-3.8-1.2-5.8-1.1c-1.8-0.2-3.6-0.8-5.3-1.3
        c-2.8-1-5.4-2.3-8.3-3c-2.5-0.6-4.5-2.1-6-4.2c-2.6-3.8-5.4-7.4-7.9-11.3c-0.5-2.3-2.6-3.8-3.3-6.1c-1.6-3.2-0.3-4.6,2.9-4.8
        c3.6-0.2,7.2-0.1,10.8-0.1c4.9,0.2,9.9-0.3,14.7,1.4C135.4,112.5,132.1,110.8,130.9,112z"/>
      <path class="st2" d="M205.9,55.1c0,3,0,6,0,9c-5,4.4-11.8,5.7-16.5,9.5c5.2,0.9,10.8-1.2,16.5-0.5c0,3.7,0,7.3,0,11
        c-3.8,2.8-7.9,0.9-11.8,0.4c-1.3,0-2.5-0.3-3.8-0.5c-0.6-0.1-1,0.4-0.4,0.1c0.6-0.2,0.1,0.6,0.5,0c0.3-0.6,0.9,0.7,0.5,0.2
        c1.5,0.6,3.6,0.1,4.3,2.2c-2.4,2.7-5.6,1-8.5,1.4c-1.6-0.2-3.1-0.9-4.6-1c-2.7-0.8-5.4-1.7-7-4.2c-0.6-0.9-1.1-2-2.5-1.9
        c-3.9,0.1-5-2.2-4.7-5.6c0.1-0.5,0.2-0.9,0.4-1.4c3.2-4.1,5.2-9.2,10.3-11.7c4-2.1,8-4.2,12.4-5.5
        C195.8,54.8,200.6,52.7,205.9,55.1z"/>
      <path class="st3" d="M205.9,129c-5.9,2.7-11.9,2-18,1.1c-0.9-1-2.2-0.4-3.3-0.7c-1.8-0.5-2.7-2-1.6-3.3c2.4-2.9,4.2-6.5,7.7-8.4
        c2.8,1.6,5.6,3.5,9,0.5c-2-1.4-4-0.6-5.9-0.7c-1.3-0.1-3.2,0.7-3.3-1.8c3.1-3.8,7.3-1.5,10.9-2.1c1.9,0.1,3.3,1,4.5,2.4
        C205.9,120.3,205.9,124.7,205.9,129z"/>
      <path class="st4" d="M201.9,115c-2.4,0-4.9-0.1-7.3-0.1c-1.5,0-3.5-0.5-3.6,2.1c0.2,0.4,0.2,0.6-0.2,0.8c-1.4,1.7-2.9,3.5-4.3,5.2
        c-3.9,4.6-3.9,4.7,1.4,7c-1.3,0-2.7,0.2-3.9-0.1c-2.1-0.5-4.6-0.9-5-3.5c-0.3-2.6,2.4-2.2,3.8-3c0.7-0.4,1.5-0.8,2.1-1.3
        c1-0.8,2.4-1.8,1.5-3.3c-0.7-1.2-2.1-0.6-3.2-0.4c-0.8,0.1-1.6,0.3-2.4,0.4c-0.3-0.2-0.4-0.6-0.3-0.9c0.4-0.4,0.9-0.5,1.2-1
        c3.3-1.4,6.4-2.8,4.5-7.6c-1.1-2.7,1.4-2.4,2.9-2.4c5.6,0.1,11.1,0.6,16.7,0c0,1,0,2,0,3c-2.7,2.3-5.7,0.2-8.6,0.4
        c-1.8,0.1-3.6,0-5.5,0.2c2,1,4.3,1.4,6.5,1.9C199.7,112.9,201.8,112.5,201.9,115z"/>
      <path class="st5" d="M183.9,55c6.9-3.8,14.8-4.3,22-7c0,1.3,0,2.7,0,4c-1.9,2.9-5.1,2.5-7.9,2.9c-2.3,0.3-4.5,0.6-6.5,1.8
        c-4.7,1.2-9,3.5-13.2,5.9c-3.2,1.6-5.2,5.3-9.4,5.1c-1.1-0.4-1.6-1.1-1.6-2.3c0.2-0.8,0.7-1.3,1.5-1.5c2-1.3,4-2.6,6-4
        C177.8,58.3,180.6,56.2,183.9,55z"/>
      <path class="st6" d="M205.9,73c-6.5,2.4-13.2,2.3-20.1,1.6c6.3-4.5,12.7-8.4,20.1-10.6C205.9,67,205.9,70,205.9,73z"/>
      <path class="st7" d="M205.9,32.1c-0.8-0.8-2.4-1.5-2.4-2.3c-0.5-6.4-5-5.8-9.4-5.8c-11,0.1-22,0.1-32.9,0c-1.8,0-3.7,0.6-5.2-1
        c15.3-0.2,30.7-0.4,46-0.7c1.3,0,2.6-0.2,3.9-0.3C205.9,25.4,205.9,28.7,205.9,32.1z"/>
      <path class="st8" d="M201.9,115c-3.8-1-7.6-1.9-11.4-2.9c-1.3-0.4-2.7-1.1-2.3-2.7c0.4-1.7,1.9-0.8,2.9-0.7
        c4.9,0.4,9.8,0.9,14.7,1.3c0,2,0,4,0,6C204.5,115.7,203.2,115.3,201.9,115z"/>
      <path class="st9" d="M193.7,139.8c3.8-2.1,8.3-1.3,12.2-2.8c0,1.3,0,2.7,0,4c-7,2.3-13.9,5-21.1,6.6c-2.3,0.5-4.5,0.9-6.9,0.5
        c-0.2-2.6,2-2.1,3.4-2.6c5.7-1.9,11.4-3.5,17.3-4.4c1.1-0.2,2.4-0.1,2.8-1.6c0.5-0.4-0.6-0.5-0.1-0.1
        C199,141.8,196.4,142,193.7,139.8z"/>
      <path class="st10" d="M185.7,87.2c2.9-1,6.2,0.8,9-0.9c3.7-2.2,7.4-1.5,11.1-0.2c0,1,0,2,0,3c-6.5,1.8-12.8-1-19.3-0.6
        C185.9,88.3,185.6,87.9,185.7,87.2z"/>
      <path class="st11" d="M190.9,56c4.5-3.1,10.4-1.3,15-4c0,1,0,2,0,3c-5.2,0.1-10.2,1.1-15,2.9C190.5,57.3,190.7,56.7,190.9,56z"/>
      <path class="st12" d="M205.9,86c-3.7,0.1-7.4,0.1-11.1,0.2c-1.7-0.3-3.5,0-5-1.1c0.5-0.8,1.2-1,2-1c0.8,0,1.5,0.4,2.3,0.4
        c-0.4-0.4-1.6-0.2-1.2-1.3c4.3,0.2,8.6,1.3,13,0.9C205.9,84.7,205.9,85.4,205.9,86z"/>
      <path class="st13" d="M186,87.9c6.6,0.1,13.2,1.6,19.8,1.1c0,0.3,0,0.7,0,1c-7.1,0.4-14.1-0.4-21.1-1.7
        C185,87.6,185.4,87.5,186,87.9z"/>
      <path class="st14" d="M200.9,156c1.2-1.8,2.8-2.9,5-3c0,1,0,2,0,3c-1.3,1.3-2.6,2.7-4,4C200.7,158.9,201,157.4,200.9,156z"/>
      <path class="st15" d="M37,211c-5.8-4.8-13.3-2.9-19.9-4.7c-3.7-1-5.6-1.7-5.2-5.9c-2.5,0.5-3,2.8-4.6,3.7
        c-0.9,0.5-1.9,1.1-2.6,0.1c-0.6-0.8,0.3-1.4,0.7-2.1c2.6-5.1,6-9.4,11.8-11.1c0.5,5.3,0.6,5.5,5.9,3.8c8.6-2.7,17.2-1.6,25.7,0.1
        c3.4,0.7,5.7-1.3,8.4-2c5.2,0.8,6.4,2.2,5.9,6.9c-3.3-0.5-4.9,0.9-6,4.2c-1.7,5-2.2,10.7-7.3,14.2c-0.8-1.4-2.3-2.8-4.7-2.3
        C43.8,212,40.4,211.5,37,211z"/>
      <path class="st16" d="M57.1,194c-3.2,2.9-6.5,4.3-10.6,1.4c-1.3-0.9-3.3-0.6-4.9-0.1c-2.3,0.8-4.3,0.6-6.6-0.7
        c-4.3-2.4-8.1,1.7-12.4,1.9c-2.3,0.1-4.7,2.4-6.8,0.2c-2.1-2.2,1.4-3.7,1.3-5.8c2.2-3,4.8-5.5,8.9-5.2c0.1,3.1-3.2,2.9-4.6,5.2
        c6.1-1.8,11.7-4.4,18-3.6c2.3,0.3,4.6,0.1,6.9,0.6c3.7,0.8,7.2,0.5,10.5-1.5c3.3-2,6.2-2.3,8.2,1.9c0.9,1.9,2.8,3.1,4.2,0.9
        c2.4-3.7,6.7-6,8.2-10.4c0.1-0.7,0.3-1.4,0.7-2c0.3-0.4,0.6-0.7,1-1.1c1.8,0.2,2.2,1.3,1.8,2.8c-0.4,1.4-1,2.8-1.5,4.2
        c-0.9,2.5-5,3.9-3.5,6.9c1.2,2.5,4.7,2.7,7.2,3.9c4.3,2.1,8.6,4.2,12.8,6.3c1.9,2.6,0.4,4.4-1.4,6c-1.6,0.7-2.9-0.5-4.3-0.6
        c-2-0.2-4-0.2-5.9,0.4c-10.3,3.7-16.7-0.5-21.3-10.5C61.4,192.2,59.8,191.5,57.1,194z"/>
      <path class="st17" d="M57.1,194c1-1.3,0.5-3.9,3.1-3.9c2.6,0,3,2.2,3.7,4c4,10.3,10.7,14.3,19.7,10.5c2.4-1,4.9-0.5,7.3-0.6
        c1.2,1.3,1.4,3.2,2.4,4.6c0,0.7,1-0.1,0.3,0c-0.1,0-0.1-0.2-0.1-0.5c-0.1-0.8-0.2-1.6,0.5-2.2c0.8-1.9,2.4-3.6,1.9-5.9
        c0.2,0,0.4-0.1,0.5,0c3.2,3.8,7.1,5.6,12.1,5.5c1.3,0,1.1,1.4,0.2,2.7c-2.7,3.8-6.6,6.8-7.2,12.1c-0.2,1.8-8.3,3.1-10,1.1
        c-3.3-4-8.3-2.8-12.2-4.9c-3.3-1.8-6.1-3.6-8.2-6.7c-2.4-3.5-5.4-6.6-8.1-9.9C62.2,196.7,61.1,193.9,57.1,194z"/>
      <path class="st18" d="M83,102.1c0.9,1,1.9,2,2.8,3c0.3,3.2-2.2,2.9-4.1,3.3c-5,0.3-6.6,2.7-5.2,7.4c1,3.2,1.1,6-3.1,6.8
        c-1.5,0.3-1.5,1.6-1.7,2.7c-0.2,0.5-0.4,0.9-0.8,1.2c-1,0.4-1.9,0.1-2.7-0.5c-3.5-4.8-3.5-4.8,0.6-9.1c2.5-2.6,1.5-4.6-0.9-6.5
        c-2.5-1.7-5.7-3.3-1.6-6.7c1.2-1,0.7-2.1-0.2-3c-2.8-2.7-3.6-5.7-2.4-9.5c0.5-1.7-0.8-3.1-1.4-4.7c-0.6-1.8-2.3-3.4-1.4-5.6
        c2.8-2,5-1.3,6.5,1.5c1.4,2.6,3.1,3.5,6,2.4c3.8-1.5,5.2,1.5,6.7,4.1c-3.3,4.9-0.7,8.8,2.3,12.6C82.6,101.5,82.8,101.8,83,102.1z"
        />
      <path class="st19" d="M101,170c-5.1-2.3-8.1-7-12.1-10.5c-3.7-3.4-6.8-7.5-10.2-11.3c0.3-0.4,0.7-0.6,1.1-0.7
        c1.6-0.2,2.6,1.2,4.2,1.5c1.1-1.3-0.4-2.7,0.2-4c0.2-0.4,0.4-0.8,0.8-1.1c2.2-0.3,2.6,2.4,4.3,2.8c0.4-0.1,0.7-0.3,0.8-0.6
        c1-1.7,0.4-5,3.6-4.3c2.6,0.5,5.1,2.1,4.9,5.3c-0.1,2.1,0.5,2.6,2.4,2.3c1.9-0.3,4,0.6,4.8,2.1c2.4,4.5,6.4,8.1,7.7,13.2
        c-0.7,1.8-2.3,3.3-2,5.5c-0.2,0.4-0.5,0.8-0.9,1c-4.1-2.9-8.4-5.6-11.4-9.8c-1.7-2.4-3.6-4.3-7.3-3.6c1.4,3.3,4.7,4.6,6.4,7.3
        C99.5,166.6,101.6,167.5,101,170z"/>
      <path class="st20" d="M78.9,178.9c-1.9,5.5-6.6,9-10.2,13.2c-2,2.4-4.3-0.8-4.9-2.9c-1.2-4-3.4-3.6-5.9-1.7c-4,3-8.2,2.6-12.8,1.8
        c-8.5-1.6-16.7,0.3-24.6,3.7c-0.7,0.3-1.5,1.1-2.2,0.2c-0.7-1-0.2-2,0.7-2.6c2.2-1.6,4.6-3.1,6.9-4.7c7.2-2.5,14.2-5.8,22-6
        c0.3,2.5-1.9,2.4-3.3,2.8c-3.1,0.8-6.3,1.8-9.3,3c6.6-2.7,13.5-3.4,20.4-3.5C63.7,182,71.5,181.9,78.9,178.9z"/>
      <path class="st21" d="M112.9,164.9c-1.2-4.4-5.1-7.2-6.6-11.6c-0.6-1.7-3.8-5.1-7.3-2c-0.7,0.6-1.5,0.5-2.2-0.2
        c-0.7-0.7-0.6-1.5,0-2.2c2.9-3.5-0.5-4.5-2.4-6c-1.4-1-2.2-0.5-2.3,1.1c-0.1,2.2,0.1,5-2.5,5.2c-2.4,0.2-2.2-2.9-3.3-4.4
        c-0.3-0.4-0.8-0.6-1.2-0.8c-2-0.4-4.2-0.5-5.2-2.7c-0.1-2.8-2-3-4.1-2.7c-2,0.2-3.6-0.2-4-2.5c1-1.2,2.9-1.7,2.8-3.7
        c0.2-0.4,0.5-0.7,1-0.8c0.5,0,0.9,0.1,1.3,0.3c3.9,4.3,8.7,3,13.4,2.2c0.5,0.1,0.9,0.3,1.3,0.5c4.1,1.6,6.4,5.6,10.1,7.6
        c3.7,2.2,3.7,6.9,6.4,9.8c5.5,8.9,10.5,18.1,16.2,26.9c-2,1.8-3.6-0.4-5.4-0.6c-0.5-0.2-0.9-0.4-1.4-0.6c-0.6-0.4-1.1-1-1.4-1.7
        C115.9,172,112.8,168.9,112.9,164.9z"/>
      <path class="st22" d="M108,151.9c-2.1-0.8-2.9-2.5-3.2-4.6c-0.3-2.1-2.1-3.3-3.8-4.3c-3.3-2.7-5.6-6.7-10-8l0,0
        c-3-1.8-6.3-0.6-9.5-1.4c-1.9-0.4-3.8-0.5-5.5-1.7l0,0c-0.6-0.6-0.7-1.3-0.6-2.1c1.7-4.5,1.3-9.2,0.6-13.8
        c-1.1-0.8-3.7-1.5-2.6-2.8c2.2-2.3,2.2-7.7,7.6-6.2c-1.3,2.5-2.2,4.7,2.1,4.9c0.9,0,2.5,0.3,1.9,2.1c0.1,1.1,0.7,2.6,0.2,3.4
        c-3,4.7,0.9,8.2,2.1,12.1c0.3,1,0.9,2.4,2.3,2.4c8.9-0.2,11.6,7.1,15.4,12.8C106.4,146.8,107,149.5,108,151.9z"/>
      <path class="st23" d="M78.9,178.9c-5.1,2.9-9.9,5.3-16.6,4.5c-7.6-0.9-15.7,0-23.2,2.8c-2.7,1-5.4,0.7-9.1,0.4
        c6.1-4,12.6-4,18.1-6.8c7.3-1.3,14.6-2.7,21.8-4c3.1-0.5,6.3-1.2,9,1.2C78.9,177.7,78.9,178.3,78.9,178.9z"/>
      <path class="st24" d="M80,89.1c-2.2-2.2-3.8-5.5-8-2.4c-1.6,1.2-4.4,0.7-5-2.2c-0.7-3.6-2.9-4.4-6-3.4c-1,1-2.2,1.1-3.5,0.6
        c-2.1-4-1.4-5.6,2.3-6.1c4.8-0.6,4.8-0.6,2.5-5.2c-0.1-1.3,0.2-2.5,1.7-2.8c0.5,0,0.9,0.3,1.3,0.7c1.1,2.1,2.5,2.9,5.2,2.3
        c6.5-1.5,9.3,1.3,6.6,7.3c-2.1,4.7,2.7,6,3.1,9.2C80.6,87.7,80.6,88.4,80,89.1z"/>
      <path class="st25" d="M193.7,139.8c3.1,0.7,6.2-0.3,9.4-0.2c-7.8,4.5-17,5-25.2,8.4c-8.7,0.6-17.3,0.3-26-0.1
        c-0.3-0.5-0.3-0.9,0.1-1.3c2.9-1.8,6.1-0.9,9.2-1.1c2.7-0.2,5.3-0.1,7.7-2c-2.7-0.3-5.3,0.1-7.9-0.2c-3.1-0.6-6.3-0.5-9.4-1
        c-1.5-0.2-3.9,0.2-3.5-2.8c11.9-2.2,23.6,2.3,35.4,0.8c1.8-0.2,3.6,0.4,5.4-0.4C190.5,140,192.1,139.9,193.7,139.8z"/>
      <path class="st26" d="M57.1,80.9c1.3,0.1,2.6,0.1,3.9,0.2c2,4.2,6,7.6,3.4,13.4c-1,2.1,1.7,4.5,3.7,5.9c2,1.4,2,2.8,0.1,3.7
        c-5.7,2.8-1.2,3.6,0.8,4.9c0.3,0.5,0.3,1-0.2,1.4c-2.1,1.2-4.2,1.1-6.4,0.3c-1.9-1-1.5-3.2-2.5-4.7c-1.5-5.6-3.8-11.1-3.8-17
        c4.6,0.3,2.4,4.6,4.2,6.7c-0.7-2.8-0.7-5.6-0.3-8.3c0.2-1.3,0.6-2.9-1.2-3.2c-1.6-0.2-1.3,1.6-1.7,2.5c-0.3,0.6-0.6,1.2-1.2,1.5
        c-1.2-1.2-0.8-2.7-0.9-4.2C54.5,82.2,53.8,80.2,57.1,80.9z"/>
      <path class="st27" d="M101,170c-2.7-3.8-6.1-6.8-9.5-10c-0.9-0.8-2.5-1.7-1.8-3.2c0.7-1.4,2.4-0.7,3.6-0.8
        c2.1-0.3,4.1,0.3,5.2,2.1c3.2,5.3,9,7.9,12.5,12.9c0.2,0.2,0.4,0.4,0.6,0.6c0.7,2.2,0.3,3.8-2.2,4.3c-0.8-0.1-1.6-0.3-2.2-0.9
        C105.1,173.3,103,171.6,101,170z"/>
      <path class="st28" d="M198.9,163c-2.9,3.2-5.6,6.6-10,8c-0.6,0.5-1.3,0.6-2,0.2c-1-2.9-1-6.1-1.8-9.1c-1.3-6.4-3.7-7.6-10.2-4.7
        c-1.1,1.4-0.3,3.8-2.2,4.8c-2.2-6.5-1.8-7.7,3.1-9.4c2.2-1.1,4.5-0.3,6.8-0.7c5.7-0.9,7,0.4,6.8,6.3c-0.1,2.9,0,5.5,3.9,2.7
        c0.7-0.3,1.5-0.6,2.3-0.8C197.3,160.5,199.8,159.5,198.9,163z"/>
      <path class="st29" d="M93.9,98.1c3,2.2,7.3,1.7,10,3.3c7.5,4.4,15.8,3.3,23.7,5c2.7,0.6,5.6,0.5,8.3,0.7c0.3,0.6,0.2,1.1-0.4,1.4
        c-8.8,0.3-17.5-0.4-26.2-0.8c-2.7-0.1-5.4-0.6-8,1.3c-2.7,1.9-3.9-1.2-5.2-2.9c-0.4-1-0.7-1.9-1.1-2.9
        C94.7,101.4,93,100,93.9,98.1z"/>
      <path class="st30" d="M152,151.9c4,0.4,5.6,3.3,4.9,6.7c-1.1,5.8-0.9,11.6,0.1,17.3c0.8,4.5-0.9,5-4.8,4.2
        c-5.3-1.1-8.7-4.5-12.1-8.2c-1.9-2.6-4.9-4.1-6.6-6.9c-0.9-1.5-2.1-2.8-1.8-4.8c0.3-0.4,0.8-0.6,1.3-0.6c1.3,0.3,2.1,1.1,3.1,1.9
        c2.5,2.2,4.8,4.6,6.7,7.3c1.3,1.9,2.8,3.7,4.7,5.2c1.5,1.1,3.2,2.3,5,1.5c1.9-0.8,1.1-2.9,1.2-4.5c0.1-3.8-0.2-7.7,0.5-11.4
        c0.5-2.6-1.1-4.4-2.3-6.3C151.6,152.7,151.7,152.3,152,151.9z"/>
      <path class="st31" d="M99,29.1c-0.4,3.6-0.7,7.2-1.1,10.8c-0.4,3.3,0.9,4.3,4.1,4.4c8.3,0.4,16.5,2,24.1,5.5c0,1,0.7,2.2-0.7,2.8
        c-2.4,0.5-4.8-1.9-7.2,0.1c-3.7-0.9-8,0.1-10.7-3.7c-1.5-0.2,2.7-1.5-0.6-2c-3.8-0.6-8.2,0.9-11.4-2.4c0.1-3.9-0.4-7.7,0.2-11.6
        c0.6-1.4,1.2-2.8,1.8-4.2C98.2,28.4,98.6,28.5,99,29.1z"/>
      <path class="st32" d="M119,177c2-0.1,3.1,2.3,5.2,1.9c0.6,0.3,1.2,0.7,1.8,1c3.4,3.6,5.2,8.4,8.8,11.9c1.1,1,1.5,2.8,0.2,4.1
        c-1.6,1.6-2.5-0.3-3.8-1c-2.9-1.4-4.6-4.3-7.4-5.9c-4.8-3.5-10-6.4-13.9-11.1c2.3-1.4,3.7,0.5,5.3,1.4c2.4,1.4,4.2,3.7,7.2,4.5
        C122.9,180.6,117.9,180.3,119,177z"/>
      <path class="st33" d="M123.9,189c3.2,0.4,4.5,3.8,7.3,4.9c1.1,0.4,1.9,2.6,3.2,1.3c1.3-1.4-0.3-3-1.3-3.7c-4.2-2.8-5.3-7.3-7-11.5
        c4.2,2,7.1,5.5,9.9,9.1c0.9,2.2,3.6,3.2,3.6,6.2c-0.1,3.9-0.6,4.4-4.6,2.8C130.7,195.6,126.8,192.9,123.9,189z"/>
      <path class="st34" d="M131.8,160.1c1.1,5.1,6.3,7.3,8.3,11.7c-6.5-2.6-9.1-9-12.5-14.1c-6.7-9.9-14.3-19.3-18.7-30.6
        c0.2-0.1,0.4-0.3,0.6-0.4c4.2,1,5.4,5,6.8,8c2,4.3,4.8,7.9,7.4,11.7c1.7,3.2,4.1,6,6.2,8.9C130.8,156.7,132.2,158,131.8,160.1z"/>
      <path class="st35" d="M69,110.1c0-0.4,0-0.7,0-1.1c4.2,4.2,4.1,6.5-0.4,9.2c-4.2,2.5-0.2,4.6,0.3,6.9c-0.4,0.7-1.1,1.2-1.8,1.6
        c-0.4,0.2-0.8,0.3-1.2,0.4c-3.7-6.6-5-13.8-5.9-21.1c1.5,0.9,1.2,2.8,2.2,4.1C64.4,115.5,66.7,112,69,110.1z"/>
      <path class="st36" d="M186,161.9c1,2.9,2.7,5.8,0.9,9c-1.4,3-4.5,4.2-7,6.1c-1,0.2-1.9,0.6-2.9,0.7c-5,0.9-5.7,0.2-5.1-5.1
        c0.4-3.4,0.5-6.9,0.7-10.3c0.7-2.1-0.6-4.5,1.2-6.4c0.2,0.2,0.4,0.4,0.6,0.6c1.2,2,0.6,4.3,0.9,6.5c0.1,2.3,0,4.7,0,7
        c-0.2,2.5-0.4,4.6,3.2,2.4c4-2.4,5.3-6.2,6.8-10C185.6,162.2,185.8,162.1,186,161.9z"/>
      <path class="st37" d="M57.1,80.9c-1.9,0.3-1.9,1.8-2.1,3.2c-0.3-6.6-0.6-13.3-0.9-19.9c0.3-0.4,0.7-0.5,1.2-0.3
        c0.3,0.4,0.6,0.8,0.7,1.3c1.4,6.4,1.4,6.4,6.9,4.7c0.6,2.3,4.8,3.2,3.3,6c-1.2,2.3-4.2,1.1-6.5,0.9C56.3,76.6,57.3,79.1,57.1,80.9
        z"/>
      <path class="st38" d="M120,108.9c-3,0-5.9,0.4-8.9,0c-3.9-0.5-4.7,0.9-3.3,4.2c-1,2.3,0.8,4.2,1,6.3c0.1,1.6-0.2,3-1.9,3.5
        c-2.5-4.1-4.5-8.6-7.8-12.2c3.2-3.8,7.4-4.7,12-3.4C114,108.2,117.5,105.9,120,108.9z"/>
      <path class="st39" d="M120,108.9c-7.2-1.7-14.2-1.9-20.9,1.9c-1.1-1.6-3.1-2.6-3.1-4.9c1.9,0.9,3.2,4.9,6,0.5
        c0.9-1.5,4.1-0.5,6.2-0.3c9.2,1,18.5,1.6,27.8,1.7c0.5,1.1,0.9,2.2-1.1,2.1C130.1,107.6,125,109.7,120,108.9z"/>
      <path class="st40" d="M119,177c0.9,2.1,3.1,2.8,4.7,4.3c1.2,1.1,1.9,2.6,0.8,3.9c-1.1,1.4-2.6,0.7-3.9-0.2
        c-3.5-2.4-6.2-5.8-10.5-7c-1.2-0.8-2.5-1.4-2.9-3c0.6,0,1.2,0,1.8,0.1c3,0.5,5.6,3,9,2.1C118.3,177,118.6,177,119,177z"/>
      <path class="st41" d="M55.9,88.2c1.2-1.9-1.9-6.4,2.8-5.9c4,0.4,2.9,3.8,2.5,6.7c-0.3,2-0.6,4.3,0.7,6.3c0.7,1.1,1.9,2.5,0.1,3.3
        c-1.7,0.8-2.8-0.6-3.5-2c-0.5-1-0.5-2.3-0.5-3.4c-0.1-1.7-0.1-3.4-2-4.2C55.9,88.8,55.8,88.5,55.9,88.2z"/>
      <path class="st42" d="M195,161.1c-0.3,0.3-0.7,0.7-1,1c-2.8,1.3-5.1,2.1-4.6-2.7c0.6-6.5,0.4-6.5-6.2-7c-0.5,0-0.9-0.2-1.3-0.6
        c3.6-1.5,7.6-1.5,11.4-2.6c3.5-1,2.3,1.5,1.8,3.5c-0.6,2.3-4.7,4.9,0,7.2c0.3,0.2,0.4,0.4,0.3,0.6
        C195.2,161,195.1,161.1,195,161.1z"/>
      <path class="st43" d="M151.8,147.1c0.1,0.3,0.2,0.6,0.2,0.8c-1.4,0.1-2.8,0.3-4.1,0.4c-0.1,1.7,1.7,1.5,2.1,2.7
        c-2,1.7-4,0.3-6,0.1c-3.7-1.9-8.1-2.1-11.5-4.7c-0.9-1.2-1.4-2.3-0.4-3.7c3.8-1.2,7.3,1.1,11,1.2
        C145.7,145.5,149.3,144.8,151.8,147.1z"/>
      <path class="st44" d="M85,114c-0.7-0.9-1.6-1-2.6-1c-2.1,0-4.5,0-5.2-2.6c-0.7-3.1,2.9-1.8,3.8-3.4c1.8-0.2,3.9,0.5,4.8-2
        C88.3,108.3,86.7,111.2,85,114z"/>
      <path class="st45" d="M181.8,151.9c0.2,0,0.3,0,0.5,0c9.8,0.1,9.8,0.2,8,9.9c1.1,1,2.5-0.2,3.7,0.3c-1.2,1.7-2.8,3.1-4.9,2.1
        c-1.7-0.8-1.2-2.9-1.1-4.5c0.2-6.8,0.2-6.8-6.7-6.7c-1.8,0-3.6,0-5.4,0C177.6,151.4,179.8,152.2,181.8,151.9z"/>
      <path class="st46" d="M72,35.1c0.9-1.4,1.6-2.9,2.6-4.2c1.4-1.7,3.3-2.8,5.1-1.2c2,1.8,1.5,3.8-0.8,5.3c-1.6,0.6-3,1.7-4.7,2.3
        C72.5,38,71,37.7,72,35.1z"/>
      <path class="st47" d="M55.1,64.1c-0.3,0-0.7,0-1,0c0.4-0.7,0.8-1.5,1.4-2c4.4-3.3,4.5-3.3,5.6-7.2c0.3-0.3,0.8-0.5,1.2-0.4
        c2.1,0.9,4.3,1.6,5.8,3.4c-0.1,3.9-3.3,1.9-5.1,2.5c-0.3,2,1.8,1.2,2.2,2.2c-0.2,0.5-0.5,0.8-1,1C61.1,64.3,58.1,64.2,55.1,64.1z"
        />
      <path class="st48" d="M62,55.1c-0.3,0-0.6,0-0.9-0.1c-0.4-4.4,2.3-7.2,4.9-10.1c3.6-1.5,3.8,0.7,3.5,3.3c-1,2.2-3.1,3.7-4.3,5.8
        C64.6,55.2,63.5,56.1,62,55.1z"/>
      <path class="st49" d="M80,89.1c0-0.7,0-1.4,0.1-2.1c1.9,4.8,0.1,10.4,2.9,15.1c-1.3-0.5-1.7-2-2.5-2.9
        C75.7,94.1,75.7,94.1,80,89.1z"/>
      <path class="st50" d="M92.2,82.1c-0.1,4.3-0.2,8.6-0.3,12.9c-0.3,0.4-0.6,0.4-0.7-0.1c-1.1-7.6,0.3-15.1,1.4-22.6
        c0.6-4.1,0.9-8.2,1.4-12.3c0.6-0.2,1.1,0,1.5,0.4C96.2,68,96.5,75.4,92.2,82.1z"/>
      <path class="st51" d="M134.9,198c1.2-0.2,2.7,1.2,3.5-0.4c0.8-1.5,0.8-3.3-0.3-4.6c-1-1.2-2.5-2.1-2.2-4c2.4,1.4,4,3.2,4.1,6.3
        c0.1,2.1,0.8,4.2,2.4,5.8c0.6,0.6,1.7,1.5,0.5,2.5c-0.9,0.7-1.9,0.1-2.6-0.6C138.6,201.3,136.8,199.6,134.9,198z"/>
      <path class="st52" d="M69,49c0.3-2.3,0-4.2-3-4.1c0.8-2.1,2.9-3.1,4.1-4.9c1.6-1.3,3.2-1.4,4.9-0.1c-2,3.4-3.9,6.7-5.9,10.1
        c-0.3-0.2-0.4-0.4-0.3-0.7C68.8,49.2,68.9,49,69,49z"/>
      <path class="st53" d="M37,211c6.7-1.8,7.6-1.4,8,5C41,216.5,39,213.7,37,211z"/>
      <path class="st54" d="M72,136.1c0.8,1.6,2,1.9,3.7,1.2c2.1-0.8,4,0.1,5.4,1.5c1.4,1.4,0.2,1.9-1.1,2.2c-0.2,0-0.4,0.1-0.6,0.1
        c-2.1-0.2-3.5,0.8-4.3,2.7c-2.6-1.9-3-5-4.2-7.7c0.1-0.2,0.1-0.3,0.2-0.5C71.5,135.7,71.8,135.8,72,136.1z"/>
      <path class="st55" d="M95.8,33c0.1,4,0.2,8,0.3,12c0.6,0.7,1.5,1.3,1.9,2.2c0.8,2.1,1.7,4.1,0.7,6.4c-0.4,0.7-1,0.8-1.7,0.4
        c-0.8-0.8-1.7-1.6-2.8-2C94.6,45.7,95.2,39.4,95.8,33z"/>
      <path class="st56" d="M69,49c0,0.3,0,0.7,0.1,1c-1.5,2.5-0.8,5.3-1,8c-2.2-0.7-4.7-0.6-6.1-2.9C64.9,53.8,65.4,49.6,69,49z"/>
      <path class="st57" d="M98.6,11.9c4-1.9,7.9-3.6,12.7-3.9C109.4,10.8,105.1,12.2,98.6,11.9z"/>
      <path class="st58" d="M80,141.1c1.4,1.5,4.2,0.5,5,3c0,0.3,0,0.7,0,1c-1.9,0.5-3.7,1.2-4.9,2.9c-0.5,0.1-0.9,0.1-1.4,0.2
        c-0.9-1.1-1.8-2.2-2.6-3.3C74.8,140.9,76.8,140.4,80,141.1L80,141.1z"/>
      <path class="st59" d="M94,18.1c0,0.2,0,0.3-0.1,0.5c-0.9,2.9-2.9,3.8-5.7,3.5c-1-0.1-2.3-0.4-2-1.6c0.5-2.4,2.3-3.9,4.7-4.4
        C90.9,18.4,93.1,17.3,94,18.1z"/>
      <path class="st60" d="M195,161.1c0-0.3,0-0.6,0-1c2.6-0.5,3.9-2.8,5.9-4.1c2.4,0.8,1,2.6,1.1,4.1c-0.8,1.2-1.5,2.5-3,3
        C198.6,160.4,196.7,161,195,161.1z"/>
      <path class="st61" d="M74.9,40c-1.6,0-3.3,0-4.9,0.1c0.3-1.8,0.6-3.6,2-5c0.2,1.5,0.9,2,2.3,1.3c1.5-0.7,2.9-1.5,4.6-1.3
        C77.6,36.7,75,37.3,74.9,40z"/>
      <path class="st62" d="M94,18.1c-1.3,0.5-2.7,1.7-3.9,0.7c-1.2-1,0.8-1.7,0.9-2.7c1.4-1,2.9-2.9,4.5-1.3C96.9,16,95.2,17.2,94,18.1
        z"/>
      <path class="st63" d="M179.9,177c1.7-2.7,4.1-4.6,7-6.1c0.7,0,1.4,0.1,2.1,0.1C186.6,174,184,176.6,179.9,177z"/>
      <path class="st64" d="M176.6,8.7c5.7-0.8,5.7-0.8,8.9,1.9C182.4,11,180,10.6,176.6,8.7z"/>
      <path class="st65" d="M106,18.1c-0.3,2.1-2,3.4-3,5c-1.2,1.2-1.6,3.3-3.9,3C100.6,22.7,102.7,19.9,106,18.1z"/>
      <path class="st66" d="M143.9,150c2,0.4,4,0.7,5.9,1.1c0.7,0.3,1.4,0.6,2.1,0.9c0,0.3,0,0.6,0,0.9c-3.2,2.1-5.9,1.1-8.4-1.3
        C143.4,151,143.5,150.4,143.9,150z"/>
      <path class="st21" d="M80,141.1c-2.1,0.4-4.4,0.7-3.9,3.8c-0.4-0.3-0.7-0.6-1.1-0.9c0.2-1.2-1.6-2.7,0-3.5
        C76.6,139.6,78.5,139.4,80,141.1z"/>
      <path class="st35" d="M70.9,136.2c-2.2-2.7-3.9-5.8-5-9.1c0.2-0.1,0.3-0.3,0.5-0.4c3.9,1.7,5.2,4.9,4.9,8.8
        C71.1,135.8,71,136,70.9,136.2z"/>
      <path class="st99" d="MV1.0 TY A.S, CH.EL"/>
      <path class="st34" d="M106.9,123c0.7-1.2,1.1-2.4,1-3.8c0.4-0.4,0.8-0.5,1.3-0.3c0.6,0.5,0.8,1.2,1,1.9c0.4,2.1,1.2,4.3-1,6
        c-0.2,0.1-0.3,0.2-0.5,0.4C108.2,125.8,107.5,124.4,106.9,123z"/>
      <path class="st67" d="M94,52.1c1.4-0.7,2.5-0.7,3,1c-1.3,2-0.1,4.6-1.4,6.6c-0.2,0.2-0.3,0.3-0.5,0.5c-0.3,0-0.7,0-1,0
        C94,57.4,94,54.7,94,52.1z"/>
      <path class="st24" d="M63.9,63.1c0.4-0.1,0.8-0.2,1.1-0.3c6.1,1.7,1.5,3.6,0.1,5.4c-0.1-0.1-0.3-0.3-0.4-0.4
        C64.1,66.3,63.7,64.8,63.9,63.1z"/>
      <path class="st68" d="M99.1,26.1c1.3-1,2.6-2,3.9-3c-0.4,2.6-3.1,3.7-4,6c-0.5-0.1-0.9-0.2-1.4-0.2C98.1,27.9,98.6,27,99.1,26.1z"
        />
      <path class="st69" d="M91.2,94.9c0.2,0,0.5,0.1,0.7,0.1c0.7,1,1.3,2,2,3c-0.2,1.8,1.8,3.1,1,5C93.3,100.5,91.3,98.2,91.2,94.9z"/>
      <path class="st20" d="M78.9,177c-2.9-1.3-6-0.8-9-1.2c3.1-1.1,6.2-1.1,9.2,0C79,176.3,79,176.6,78.9,177z"/>
      <path class="st70" d="M147,60c0.3,0,0.5,0.1,0.8,0.1c3.5,1.5,4.1,3.3,2.6,7.3c-1.5,4.2-0.7,9.3-3,13.6c-0.3,0.6-0.4,1.2-1.1,1.5
        c-7.9,0.1-15.8,1.4-23.8,0.9c-4.6-0.4-9-1.1-12.4-4.7c-1.3-2.6,0.2-3.8,2.4-4.7c7.4-0.9,14.9,0.1,22.3-1.3c2.6,0,5.1,0.9,7.5,1.9
        c-1.4-0.6-2.8-1.3-2.8-3.2c0.2-0.5,0.6-0.8,1.1-0.9c5.4-0.4,6.2-1.8,3.7-7.2c-0.9-1.3-2.5-2.2-2.7-4C143.9,57.1,145.3,59.4,147,60
        z"/>
      <path class="st13" d="M168.9,64c-0.3,0.3-0.6,0.7-1,1c2.2,5.6-1.4,11.6,1.2,17.2c0,2.7,1.2,3.8,4,3.6c2.1-0.1,4.3-0.2,6.4,0.2
        c1.2,0.2,3.2-0.4,3.3,1.9c-4.1-0.2-5.7,3.6-8.5,5.5c-3.1,2-4.5,1.6-6.1-1.6c-1.7-3.4-1.8-7-2.2-10.6c-0.5-4.1-0.1-8.2-1-12.3
        C164.3,65.3,165.6,64,168.9,64z"/>
      <path class="st71" d="M92.2,82.1c1.7-7.2,2.6-14.6,2.8-22c0,0,0,0,0,0c0.5-0.3,0.9-0.3,1.4,0.1c1.7,2.5,0.7,5.4,0.7,8
        c10.3,0.7,20.3,0.1,30.3,0.5c1.1,0.8,1.2,1.8,0.3,2.8c-5.6,2-11.4,0.5-17.1,0.9c-3-0.5-5.4,1.3-8.1,1.9c-3,0.6-0.1,3.2-1.3,4.5
        C97.6,78.4,95.1,80.9,92.2,82.1z"/>
      <path class="st72" d="M180.9,118c0,0.3,0,0.6,0,0.9c-10,2.9-19.7,7.2-30.4,5.8c-2.3-0.3-3.1,1.4-4.4,2.4c0.1-2-0.9-3.6-2.3-4.9
        c0.2-1.2,1.4-1.5,2.2-2.1c3.8,5.2,9.2,2.5,14,2.9c3.1-1.3,6.4-2.4,8.9-5c1-1.2,2.7-1.5,4.1-1C175.5,117.8,178.2,117.5,180.9,118z"
        />
      <path class="st73" d="M146.7,81.7c1.7-5.5,0.7-11.5,3.7-16.8c1.3-2.4-2.6-2.7-2.6-4.7c5.6,1,6.5,2.6,4.2,7.4
        c-0.4,0.9-1,1.9-0.8,2.8c0.8,5-1.5,8.9-4.3,12.7C146.3,82.6,146.3,82.2,146.7,81.7z"/>
      <path class="st74" d="M147,60c-1.6,0.5-3.1-2-4.8-0.2c-0.2,0.2-0.3,0.3-0.5,0.5c-1.7,0.2-3-1-4.5-1.3c-3.8-2-8.3-3.1-10.9-7.1
        c-0.7-0.6-1.9-1.2-0.2-2C133.2,52.9,141.2,54.3,147,60z"/>
      <path class="st75" d="M146.7,81.7c0.1,0.4,0.1,0.8,0.1,1.2c-2.2,1.1-4.4,2-6.9,2.1c-4.4-1.2-8.9-0.2-13.4-0.6
        c-1.5-0.9-4.2,0.5-4.6-2.4C130.2,83.1,138.4,80.1,146.7,81.7z"/>
      <path class="st76" d="M180.9,118c-2.5,0.3-5,1.2-7.7,0.2c-1.8-0.7-3.7,0-5.4,1.5c-2.2,2-4.8,3.5-7.9,3.3c3.6-2.8,8.6-4,10.1-9.3
        c0.5-1.6,2.2-1.2,3.1,0.1c2.2,3.1,5.2,3.7,8.7,3.2C181.5,117.3,181.2,117.6,180.9,118z"/>
      <path class="st77" d="M122,82.1c1.3,0.6,2.6,1.3,4,1.9c-1.7,0.8-3.4,0.8-5.1,0c-1.6,1.3-3.2,1.2-5,0.3c-3.6-1.8-7.3-3.4-10.9-5.1
        c1.8-1.8,3.6-2.9,5.9-0.8C114.4,80,118,81.7,122,82.1z"/>
      <path class="st78" d="M110.8,78.4c-2,0.3-3.9,0.5-5.9,0.8c-0.6-0.1-1.2-0.2-1.8-0.4c-2.2-2-2.8-3.8,0.7-4.8
        c1.9-0.5,3.1-2.5,5.2-2.5c1.7,0,3.5,0,5.2,0c1.9,0.8,0.8,1.5,0,2.3c-0.6,0.6-1.9,0.1-2.1,1.3C110.8,75.9,110.3,77,110.8,78.4z"/>
      <path class="st79" d="M109,71.9c-1.7,1.1-2.7,3-5.1,3.3c-3.2,0.4-0.2,2.5-0.8,3.7c-0.7,0-1.3,0-2,0c-0.9-1.7-1.7-3.4-2.9-5.6
        c4,0.5,7.2-1.5,10.7-2.1C109,71.4,109,71.7,109,71.9z"/>
      <path class="st80" d="M182.9,88c-3.2-2.1-6.8-0.5-10.1-0.6c-3.5-0.1-4.9-0.9-4.9-4.3c5-0.7,9.3,2.6,14.1,2.9
        c1.2,0.4,2.5,0.8,3.7,1.2c0.1,0.3,0.2,0.5,0.3,0.7c-0.4,0.1-0.9,0.3-1.3,0.4C184.1,88.2,183.5,88.1,182.9,88z"/>
      <path class="st81" d="M120.9,84c1.7,0,3.4,0,5.1,0c4.7,0.7,9.5-1.2,14,1.1C133.6,84.9,127.1,86.6,120.9,84z"/>
      <path class="st82" d="M145.9,120.1c0,1.5-1,1.9-2.2,2.1c-0.6-0.2-1.3-0.4-1.8-0.7c-1.1-0.6-2.2-1.5-1.6-2.7
        c0.7-1.4,2.1-0.5,3.1-0.1C144.3,119,145.1,119.6,145.9,120.1z"/>
      <path class="st83" d="M134.9,110c1.5-0.2,1.2-1.2,1.1-2.1c0-0.3,0-0.6,0-0.9c3.6,1.3,1.7,2.8,0.2,4.2c-1.5,1.3-3.4,0.9-5.2,0.8
        C132.2,111.3,133.6,110.6,134.9,110z"/>
      <path class="st84" d="M183.9,55c-2.7,2.1-5.5,4.2-8.9,5.1C177.3,57.3,180.1,55.3,183.9,55z"/>
      <path class="st85" d="M142.7,145.1c-3.8,0.7-7-1.8-10.7-2c-2.5,0.2-3.9-1.9-5.9-2.7c-1.8-1.8-5.4-3.7-4-6.1c1.6-2.6,4.7,0.1,7,0.9
        c0.9,0.3,2,0,2.9,0.6c1.6,0.3,3.3,0.7,4.9,1c3.5,1.4,7.4,1.7,10.9,3.1c4.5,1.8,9.4,0.5,14,1.9c-0.2,3.9-3.3,4.2-6,4.4
        C151.4,146.7,147,146.7,142.7,145.1z"/>
      <path class="st86" d="M147.9,140.1c-3.7-0.7-7.6-0.8-10.9-3.1c3.8-0.3,7.2,2,10.9,1.9c2-0.1,4.2,0.9,6-0.8c3.2-2.7,7-0.8,10.5-1.7
        c-2.9-2.2-6.5,0.5-9.4-1.3c4.6-3.9,8.9-3.9,13.2-0.2c2.4,2.1,2.3,3.7-0.8,5.2c7.2,0,14.4,0,21.7,0c-9.2,2.7-18.4,0.5-27.7,0.5
        C156.8,140.6,152.4,140.3,147.9,140.1z"/>
      <path class="st87" d="M132,135.9c-3.4,1.1-6-2.6-9.5-1.6c0.6,2.7,3.4,3.5,4.4,5.6c-0.4,0.3-0.8,0.6-1.3,0.6
        c-6.7-3.7-11.5-9.3-14.9-16.1c-0.6-1.2-1.1-2.4-1.8-3.5c-0.1-0.6-0.1-1.2-0.2-1.8c-0.5-0.8-0.5-1.6,0.2-2.1
        c0.8-0.5,1.4,0.2,1.8,0.9c2.3,2.5,4.1,5.3,5.7,8.4C119.8,132.8,126.8,132.9,132,135.9z"/>
      <path class="st88" d="M155,135c4.7-1.4,9.3-2.5,13.8,2.3c-5.2,1.7-10.1,0.3-14.8,0.7C151.6,136.1,154.3,135.9,155,135z"/>
      <path class="st89" d="M110.9,118c-1.3-0.7-2-0.2-2.1,1.2c0,0-0.5-0.1-0.5-0.1s-0.5,0.1-0.5,0.1c0.1-2-4-4,0-6
        C108.8,114.9,111.2,115.6,110.9,118z"/>
      <path class="st90" d="M182,86c-5,0.6-9.7-0.4-14.1-2.9c-1.4-6-0.4-12,0-18c0,0.8,0,1.6,0.9,2c5.5,2.2,0.8,4.7,0.1,7
        c-0.2,0.2-0.2,0.5-0.2,0.7c-0.7,3.3-1,6.2,3.9,5.4c1.5-0.3,2.5,0.6,3.2,1.9C177,84.8,180.1,84.5,182,86z"/>
      <path class="st91" d="M169,74.1c-0.2-2.3,3.6-4.7-0.1-7c3.8-0.3,5.7-3.9,9-5c0.6,0.1,1,0.4,1.1,1C174,65.2,173.2,71.3,169,74.1z"
        />
      <path class="st92" d="M179,63.1c-0.4-0.3-0.7-0.7-1.1-1c3.9-2.9,8.2-5.1,12.9-6c1,0.6,0.2,1.3,0,1.9
        C186.9,59.6,182.9,61.4,179,63.1z"/>
      <path class="st93" d="M192.9,83.2c0.7,0.4,1.3,0.8,2.7,1.6c-2.3,0.2-4.1,0.3-5.8,0.4c-1.4-0.3-3.6-0.3-3.4-2
        c0.3-2,2.3-0.9,3.6-0.6C190.9,82.8,191.9,83,192.9,83.2z"/>
      <path class="st5" d="M175.9,82.1c-1.1-0.3-2.2-0.9-3.2-0.9c-5.1,0.1-5.3-2.6-3.8-6.3c0.2,2.8-0.1,5.8,4.5,4.4
        C174.9,78.8,175.8,80.4,175.9,82.1z"/>
      <path class="st94" d="M190.8,117.9c0-0.3,0.1-0.6,0.2-0.8c2.3-1.5,4.8-1,7.3-1c1.6,0,3.9-0.5,4,1.8c0.1,1.7-2,2.7-3.5,3
        C195.6,121.4,192,122.8,190.8,117.9z"/>
      <path class="st95" d="M94,205.9c-0.3,2,2.9,3.1,1.4,5.3c-0.2,0.4-1.3,0.5-1.7,0.3c-2.1-1.2-2.1-3.6-2.6-5.6
        c-0.2-0.6-0.1-1.3-0.1-2C91.9,204.6,93,205.3,94,205.9z"/>
      <path class="st96" d="M84.9,202c-1-2.3-1.5-3.8,0.4-4.8c0.7-0.4,1.9-0.3,2.2,0.5C88.4,200.1,86,200.3,84.9,202z"/>
      <path class="st97" d="M71.2,135.6c-1.4-3.1-2.7-6.2-4.9-8.8c-0.1-2,1.3-1.6,2.5-1.6c0.6,0.7,1.3,0.8,2.2,0.8c3.6,0.5,5,2.5,4,6
        c0.4,1.2,0.8,2.4,1.3,3.6c-1.4,0.9-2.9,0.3-4.3,0.5C71.7,136,71.5,135.8,71.2,135.6z"/>
      <path class="st98" d="M76,116c1.1,4.7,4.2,9.3,0,14c-1.2-2.2-3.1-3.7-5-5.1c-1-2.6-1.7-4.5,2.7-4C77.6,121.4,75.4,117.8,76,116z"
        />
      <path class="st99" d="M75.9,99.4c1.6,0,2.1,1.3,2.4,2.5c0.3,1.2-0.5,1.8-1.6,2c-1.5,0.2-2.6-0.1-2.6-1.9
        C74.1,100.7,74.5,99.8,75.9,99.4z"/>
      <path class="st100" d="M71,125c2.7,0.6,5.2,1.5,5,5.1c0,0.6,0,1.3,0,1.9c-0.3,0-0.7,0-1,0c-0.2-2.8-2-4.5-4-6
        C71,125.6,71,125.3,71,125z"/>
      <path class="st101" d="M80.1,147.9c-0.5-4.6,1.7-4.6,4.9-2.9c-0.3,2,3.3,4,0.9,5.6C83.5,152.2,81.9,149.1,80.1,147.9z"/>
      <path class="st102" d="M112.9,164.9c2.3,3.3,4.3,6.7,4.1,10.9c-0.7,0.6-1.2,0.1-1.7-0.4c-1.1-2.1-2.9-3.7-4.3-5.6
        C110.1,167.6,110.8,166,112.9,164.9z"/>
      <path class="st40" d="M111,169.8c2.6,0.8,4.5,2.3,4.9,5.2c-3.8,1.4-3.4-2.6-5-4c0,0,0.1-0.1,0.1-0.1
        C111,170.6,111,170.2,111,169.8z"/>
      <path class="st100" d="M76,132c5.1,0.3,10.5-0.8,15,3c-3.8-0.3-7.5,4-11.5,0.3C78.3,134.2,76.7,133.6,76,132z"/>
      <path class="st103" d="M110.9,171c2.3,0.5,2.5,3.7,5,4c0.4,0.3,0.7,0.6,1.1,0.9c0.3,0.4,0.6,0.8,0.9,1.2c-2.5,2.5-4.1,2.1-9-2.1
        C111.5,174.6,110.9,172.6,110.9,171z"/>
      <path class="st100" d="M91,135c5.3,0.2,7.3,4.6,10,8C96.9,141.3,94.7,137.2,91,135z"/>
      <path class="st104" d="M63.9,63.1c2.3,1.2,1.6,3,0.8,4.7c-1.2,0.2-1.8,0.8-1.9,2.1c-2.1,1.1-3,4.9-5.8,3.8c-3-1.2-1.6-4.6-1.9-7.1
        c-0.1-0.8-0.1-1.6-0.1-2.5C57.8,61.2,61,63.2,63.9,63.1z"/>
      <path class="st105" d="M142.7,145.1c3.2,0.3,6.5,0.5,9.7,0.9c3.9,0.4,6.9-1.2,9.4-4c3.3,0,6.6,0,10.7,0c-2.8,3-5,5.2-8.9,5
        c-4-0.2-8,0-12,0.1C148.7,146.9,145.6,146.6,142.7,145.1z"/>
      <path class="st106" d="M69,110.1c-0.3,0.8-0.3,1.8-0.9,2.2c-1.4,1.3-2.4,3.9-4.6,3.1c-2.3-0.8-1.3-3.5-1.4-5.4
        C64.4,110.1,66.7,110.1,69,110.1z"/>
      <path class="st36" d="M173.9,155.9c7.5-2.6,9.4-2.1,11.8,2.2c0.8,1.4,0.2,2.5,0.2,3.8c0,0-0.1,0.1-0.1,0.1
        c-4.7-0.5-7.9-4.1-11.9-6L173.9,155.9z"/>
      <path class="st107" d="M143.9,151c2.5,1.5,5.3,1.5,8.1,1.8c2.6,0.8,3.9,2.9,3.6,5.3c-0.8,5.5-0.6,10.9-0.5,16.4
        c0,2.4-0.5,3.7-3.5,2.9c-2.6-0.7-5-1.7-6.8-3.7c-3.3-3.8-6.6-7.7-9.9-11.6c-1.3-2.2-2.3-4.2,1.9-3.2c0.4,0.1,0.4,0,0-1.3
        c-1.2-1-1.9-2.4-2.1-4c0-1.9-0.2-3.9,1.8-5.1C139.3,148.2,141.5,149.9,143.9,151z"/>
      <path class="st108" d="M143.9,151c-2.6,0.2-4.5-1.9-7-2.1c-5,0.7-1.4,3.3-1.1,5.1c0.1,1.4,0.7,2.4,2,3c0.6,0.4,1.5,0.8,1,1.8
        c-0.5,0.9-1.5,0.8-2,0.3c-1.8-1.6-3-1.2-3.9,0.9c-0.4,0-0.8,0.1-1.2,0.1c-0.9-1.4-1.8-2.8-2.7-4.3c-0.8-2.2-2.5-3.8-3.6-5.8
        c-0.6-1-1.6-2-0.4-3c1.3-1.1,2.4-0.2,3.5,0.7c1,0.9,1.2,2.4,2,3c-0.7-2.3-1.9-4.8,2.6-4.8c3.6,1.4,7.2,2.7,10.9,4.1
        C143.9,150.3,143.9,150.6,143.9,151z"/>
      <path class="st109" d="M132.9,160c0.3-1.2-1.6-2.6-0.1-3.6c1.4-0.9,2.3,0.6,3.4,1.3c0.6,0.4,1.1,2.1,2,0.3
        c0.1-0.2-0.2-0.6-0.3-0.9c2.8,0.4,2.7,2.8,1.6,4c-1.9,1.9-2.6-1.9-4.5-1.6c-0.9,0.8,0.3,1.8-0.1,2.7
        C134.2,161.4,133.6,160.7,132.9,160z"/>
      <path class="st110" d="M144.8,63c0.7-0.1,1.6-0.7,2.1,0.3c0.3,0.5,0.4,1.2,0.4,1.9c0.1,7.5-0.1,7.6-7.7,6.1
        c-2,1.5-3.7,0.4-5.5-0.5c-3.5-1.7-6.7-4.2-10.4-5.6c-0.5-0.2-0.9-0.4-1.3-0.7c-7.2-3.9-13.9-9.3-23-8.3c-0.5-0.1-0.9-0.4-1.3-0.7
        C97.7,55,97.7,54.5,98,54c-0.3-2.3-0.7-4.7-1-7c2.1-2.7,4.9-1.8,7.1-0.7c1.3,0.7,3.1,1.3,3.8,2.9c3.7,0.9,7.4,1.8,11.1,2.8
        c3.5-0.6,6.1,1.6,9.1,2.6c2.7,0.9,5,2.6,7.6,3.6c1.2,0.7,2.6,1.2,3.8,2C141,61.6,143.4,61.4,144.8,63z"/>
      <path class="st111" d="M135.7,59.3c-5.6-2.4-11.1-4.8-16.7-7.3c0.6-2.5,2.2-2.3,3.7-1.1c1.2,0.9,2.3,1.2,3.7,1
        c3.8,2.1,7.7,4.2,11.5,6.3C137.8,60,136.7,59.5,135.7,59.3z"/>
      <path class="st68" d="M107.9,49.2c-1.5,0.1-3.3,0.2-4-1.3c-2-3.6-4.3-2.3-6.9-1c-0.7-0.5-1-1.2-0.9-2c4.6-0.4,9.1,0.5,13.9,1.3
        C109.2,47.3,108.6,48.3,107.9,49.2z"/>
      <path class="st112" d="M109,121c5,6.9,10.1,13.8,16.8,19.1c4.9,4.9-1.3,5-3,7c-5.3-4.5-7-11.4-10.9-16.8c-0.9-1.2-1.6-2.5-2.7-3.5
        C109.8,124.8,109.6,122.9,109,121z"/>
      <path class="st113" d="M122.8,147.1c-0.5-3.9-0.5-3.9,3.7-2.7c-0.3-1.5-0.5-2.9-0.7-4.4c0.4,0,0.8-0.1,1.2-0.1
        c2.4,0,3.5,1.8,5,3.2c0.3,0.9,0.7,1.8,1,2.7c-3.3,0.6-1.5,3.5-2.4,5.2c-2.7,0.2-2.2-3.5-5-3.7c-0.4,3.5,3.9,5.1,3.4,8.5
        C126.8,153.1,123.9,150.7,122.8,147.1z"/>
      <path class="st114" d="M173.9,171c0-2.7,0-5.3,0.1-8c1.5-5.3,3.7-6,7.8-2.3c2.8,2.4,2.9,5.6,0.3,8.8
        C179.2,173,177,173.4,173.9,171z"/>
      <path class="st115" d="M173.9,171c4.7,2.3,6.6-1.4,8.4-4.3c1.8-2.7-0.6-4.5-2.5-6.1c-3.5-3-4.7-0.1-5.9,2.4c0-2.3,0-4.6,0-7
        c5-0.1,8.1,3.6,11.9,6c0.5,6.8-3.8,10.4-9.1,12.8C171.9,177.1,174.7,172.4,173.9,171z"/>
      <path class="st116" d="M59.9,85.7c-0.1,0.9-0.5,1.8-1.4,1.7c-1.1-0.1-1.4-1.2-1.4-2.2c0-0.9,0.3-1.8,1.3-1.6
        C59.4,83.6,59.9,84.5,59.9,85.7z"/>
      <path class="st50" d="M98,54c0.1,0.3,0.1,0.6,0.1,0.9c-0.4,1.8-0.6,3.7-2.2,4.9c-0.3,0.1-0.6,0.2-0.9,0.2c0.2-2.5-1.7-5.5,1.9-7
        C97.3,53.4,97.7,53.7,98,54z"/>
      <path class="st117" d="M123.9,64.2c4.3,0.7,7.3,4,11.1,5.7c1.5,0.7,2.9,1.3,4.5,1.3c1.1,1.5,2.5,2.6,5.1,3.2
        c-3.6,0.8-6.1,0.1-8.7-0.5c-5-0.5-10.1-0.3-15.1-0.5c-2.1-0.1-4.3,0.4-6-1.4c-2-0.1-3.9-0.1-5.9-0.2c0-0.2,0-0.5,0-0.7
        c6.3,0,12.7-0.1,19-0.1c1.5-1.4,0.4-2.1-0.7-2.9C125.8,67.2,123.7,66.7,123.9,64.2z"/>
      <path class="st118" d="M114.9,72.1C122,72,129.1,71.9,136,74c-7.9,1.3-16,0.9-23.9,1.2c-0.5-0.3-2-0.2-0.4-1.2
        C112.7,73.4,113.8,72.7,114.9,72.1z"/>
      <path class="st74" d="M144.8,63c-2.2,0.2-4.3-0.1-6-1.8c0.7-1.3,2.1-0.6,3-1.1c0,0,0.3-0.3,0.3-0.3
        C143.7,60.3,144.9,61.1,144.8,63z"/>
      <path class="st119" d="M95.9,59.9c0.1-1.9-0.8-4.2,2.2-4.9c0.3,0.1,0.5,0.2,0.8,0.2c8.8-0.5,15.6,4.9,23,8.2
        c1,2.5,4.8,2.5,5.1,5.6c-2.1,1.9-4.8,1-7.1,1c-6.6-0.1-13.3,0.9-19.8-0.5c-3-0.6-2.6,2.4-4.7,3.2C94.7,68.2,96.9,64.1,95.9,59.9z"
        />
      <path class="st120" d="M127,69c-1.7-1.6-3.4-3.2-5.1-4.8c0.3-0.5,0.7-0.6,1.2-0.3c0.3,0.1,0.6,0.2,0.9,0.3
        c1.8,1.6,3.8,3.1,5.5,4.8c2.3,2.3,0.1,2.1-1.4,2.1C128,70.3,127.8,69.5,127,69z"/>
      <path class="st121" d="M141.9,60.1c-0.7,1.3-1.9,1-3,1.1c-1.1-0.6-2.1-1.3-3.2-1.9c0.7-0.4,1.5-0.7,2.2-1.1
        C139.7,57.8,140.6,59.3,141.9,60.1z"/>
      <path class="st122" d="M135.9,154c-1.8-1.2-3.7-2.7-2.6-5c0.7-1.6,2.4-1.2,3.6-0.1C135.3,150.3,136.2,152.3,135.9,154z"/>
      <path class="st123" d="M123,63.9c-0.4,0.1-0.8,0.2-1.2,0.3c-7.1-2.9-13.3-8-21.4-8.1c-0.5,0-1-0.7-1.6-1
        C108.6,53.5,115.9,58.6,123,63.9z"/>
    </g>
  </g>
</svg>
