<svg width="1207" height="241" viewBox="0 0 1207 241" fill="none" xmlns="http://www.w3.org/2000/svg">
<style>
  svg {
    background-color: #000000;
  }
  
  @keyframes flyout {
    from {
      transform: translateX(calc(50% - calc(367px / 2))) translateY(100%);
    }
    
    to {
      transform: translateX(calc(50% - calc(367px / 2))) translateY(calc(50% - calc(61px / 2)));
    }
  }
  
  .text-fragment { 
    fill: #ffffff;
    transform: translateX(-50%) translateY(100%);
    animation: flyout 1s cubic-bezier(0.33, 1, 0.68, 1);
    animation-fill-mode: forwards;
  }
  
  #text-letter1 { animation-delay: 1.1s; }
  #text-letter2 { animation-delay: 1.2s; }
  #text-letter3 { animation-delay: 1.3s; }
  #text-letter4 { animation-delay: 1.4s; }
  #text-letter5 { animation-delay: 1.5s; }
  #text-letter6 { animation-delay: 1.6s; }
  #text-letter7 { animation-delay: 1.7s; }
  #text-letter8 { animation-delay: 1.8s; }
  #text-letter9 { animation-delay: 1.9s; }
  #text-letter10 { animation-delay: 2.0s; }
  #text-letter11 { animation-delay: 2.1s; }
  #text-letter12 { animation-delay: 2.2s; }
  
  #anonymous-mask {
    transform: translateX(calc(100% - 206px));
  }
  
  @keyframes flickering {
    0% { opacity: 0; }
    6% { opacity: 0.3; }
    12% { opacity: 0.7; }
    19% { opacity: 0.7; }
    26% { opacity: 0.35; }
    30% { opacity: 0.3; }
    31% { opacity: 0.9; }
    38% { opacity: 0.6; }
    50% { opacity: 0.1; }
    62% { opacity: 0.3; }
    71% { opacity: 0.25; }
    72% { opacity: 1.0; }
    75% { opacity: 0.9; }
    85% { opacity: 0.9; }
    93% { opacity: 0.4; }
    100% { opacity: 0; }
  }
  
  #anonymous-mask {
    animation: flickering 12s infinite;
  }
</style>
<g>
	<path class="text-fragment" id="text-letter1" d="M3.3,44.1c-1.6-1.5-2.5-4-2.5-7.2c0-2.8,0.5-5.8,1.6-9.1c1.1-3.3,2.8-6.2,5.3-8.6c2.4-2.4,5.5-3.6,9.3-3.6
		c4.4,0,6.6,1.9,6.6,5.8c0,2.2-0.6,4.3-1.9,6.2c-1.3,1.9-3,3.4-5.1,4.5c-2.1,1.1-4.4,1.8-6.8,1.9c-0.1,1.2-0.1,2-0.1,2.4
		c0,2,0.3,3.3,1,4c0.7,0.7,1.8,1.1,3.3,1.1c2.2,0,4-0.5,5.6-1.5c1.5-1,3.2-2.5,5.1-4.6h2c-4.4,7.4-9.9,11.1-16.5,11.1
		C7.2,46.4,4.9,45.7,3.3,44.1z M10,10.6C9.3,9.9,8.9,9.1,8.9,8c0-1,0.4-1.9,1.1-2.6c0.7-0.7,1.6-1.1,2.6-1.1c1,0,1.9,0.4,2.6,1.1
		C15.9,6.2,16.3,7,16.3,8c0,1-0.4,1.9-1.1,2.6c-0.7,0.7-1.6,1.1-2.6,1.1C11.6,11.7,10.7,11.3,10,10.6z M14.6,29.5
		c1.3-1,2.4-2.2,3.2-3.7c0.8-1.5,1.2-3,1.2-4.7c0-1.6-0.5-2.5-1.5-2.5c-1.4,0-2.9,1.3-4.2,3.8s-2.4,5.4-3,8.6
		C11.8,31,13.2,30.5,14.6,29.5z M20.8,10.6c-0.7-0.7-1-1.6-1-2.6c0-1,0.3-1.9,1-2.6c0.7-0.7,1.6-1.1,2.6-1.1c1,0,1.9,0.4,2.6,1.1
		C26.7,6.2,27.1,7,27.1,8c0,1-0.4,1.9-1.1,2.6c-0.7,0.7-1.6,1.1-2.6,1.1C22.4,11.7,21.5,11.3,20.8,10.6z"/>
	<path class="text-fragment" id="text-letter2" d="M40.9,44.7c-1.2-1.2-1.8-2.8-1.8-4.9c0-0.6,0.1-1.7,0.4-3.4c0.2-1,0.3-1.8,0.3-2.3c0-1.9-0.8-2.9-2.3-2.9
		c-0.5,0-1,0.1-1.5,0.4c-0.5,0.3-1.3,0.9-2.4,1.8L31,46.1h-8.6l6.4-30h8.6l-2.6,11.9c2.7-3.2,4.9-5.6,6.5-7.3
		c1.6-1.7,3.1-2.9,4.4-3.8c1.3-0.9,2.6-1.3,3.9-1.3c2.5,0,3.7,1.3,3.7,4c0,1.2-0.3,2.2-1,2.9c-0.7,0.7-1.6,1-2.8,1
		c-1.1,0-2-0.3-2.5-0.9c-0.6-0.6-0.8-1.3-0.8-2.1c-0.8,0.5-1.4,1-2,1.6s-1.3,1.4-2,2.3c-0.8,1.1-1.7,2.1-2.5,2.9
		c0.8-0.2,1.6-0.2,2.5-0.2c2.1,0,3.5,0.5,4.4,1.4c0.9,0.9,1.3,2.3,1.3,4.2c0,0.6-0.1,1.5-0.4,2.8c-0.2,1.4-0.4,2.4-0.4,3.1
		c0,1.5,0.8,2.2,2.4,2.2c1.1,0,2-0.4,2.7-1.1s1.4-2.1,2.3-4.1h2.5c-2.5,7.4-6.2,11.1-10.9,11.1C43.9,46.4,42.1,45.8,40.9,44.7z"/>
	<path class="text-fragment" id="text-letter3" d="M56.2,44.1c-1.5-1.6-2.3-4-2.3-7.3c0-3,0.6-6.1,1.8-9.3c1.2-3.3,2.9-6,5.3-8.3c2.3-2.3,5.1-3.4,8.4-3.4
		c1.6,0,2.9,0.3,3.7,0.8c0.8,0.6,1.2,1.3,1.2,2.2v0.4l0.7-3.2h8.6l-4.3,20.4C79,37.1,79,37.7,79,38.4c0,1.7,0.8,2.6,2.5,2.6
		c1.1,0,2.1-0.5,2.9-1.6c0.8-1,1.5-2.4,2-4.1h2.5c-1.5,4.3-3.3,7.3-5.5,8.8c-2.2,1.5-4.4,2.3-6.6,2.3c-1.7,0-3-0.5-4-1.4
		c-1-0.9-1.6-2.3-1.8-4.1c-1.2,1.6-2.5,3-3.9,4c-1.4,1-3.1,1.5-5.1,1.5C59.6,46.4,57.7,45.6,56.2,44.1z M68.8,39.2
		c1-0.9,1.7-2.2,2-3.9l2.9-13.6c0-0.5-0.2-1-0.6-1.5c-0.4-0.5-1-0.8-1.9-0.8c-1.6,0-3,0.9-4.3,2.8c-1.3,1.9-2.3,4.1-3,6.7
		c-0.7,2.6-1.1,4.9-1.1,6.9c0,2,0.3,3.3,0.9,3.8c0.6,0.6,1.3,0.8,2.1,0.8C66.8,40.6,67.8,40.1,68.8,39.2z"/>
	<path class="text-fragment" id="text-letter4" d="M90.8,13.8h8.6l-1,4.5c2-1.7,4.3-2.6,7-2.6c2.2,0,4,0.7,5.3,2.2c1.3,1.5,2,3.9,2,7.3c0,3.2-0.5,6.4-1.4,9.6
		c-0.9,3.2-2.5,6-4.7,8.2c-2.2,2.3-5.1,3.4-8.7,3.4c-2.6,0-4.3-0.7-5.1-2.2l-3.1,14.6l-9.1,2.2L90.8,13.8z M101,38.5
		c1.3-1.8,2.2-3.9,2.8-6.4c0.6-2.5,0.9-4.8,0.9-7c0-3.3-1-5-3-5c-0.7,0-1.5,0.3-2.2,0.8c-0.7,0.5-1.4,1.2-1.9,2.2L94,39.8
		c0.3,0.9,1.1,1.4,2.3,1.4C98.2,41.2,99.8,40.3,101,38.5z"/>
	<path class="text-fragment" id="text-letter5" d="M130.9,44.6c-1.2-1.2-1.8-2.7-1.8-4.5c0-1.2,0.5-4,1.4-8.4h-6.7l-3.1,14.4h-8.6l6.4-30h8.6l-2.6,12h6.7l2.7-12
		h8l-3.2,14.9c-0.4,1.7-0.7,3.2-1,4.5c-0.3,1.3-0.4,2.2-0.4,2.6c0,1.7,0.8,2.5,2.4,2.5c1.1,0,2-0.4,2.7-1.1c0.7-0.8,1.5-2.1,2.3-4.1
		h2.5c-2.5,7.4-6.2,11.1-11.2,11.1C133.9,46.4,132.1,45.8,130.9,44.6z"/>
	<path class="text-fragment" id="text-letter6" d="M146.7,44.4c-1.5-1.4-2.2-3.2-2.2-5.6c0-1.2,0.1-2.3,0.4-3.4l4-19.3h8.3l-4.4,21.1c-0.1,0.3-0.2,0.9-0.2,1.7
		c0,1.6,0.9,2.5,2.7,2.5c1.1,0,2.1-0.4,3.1-1.3c1-0.9,1.8-2.1,2.4-3.6c0.6-1.5,0.9-3.2,0.9-5c0-1-0.3-1.8-0.9-2.3
		c-0.5,0.4-1.1,0.5-1.7,0.5c-0.7,0-1.3-0.2-1.8-0.7c-0.5-0.4-0.8-1.1-0.8-1.9c0-0.9,0.3-1.6,1-2c0.7-0.5,1.5-0.7,2.3-0.7
		c0.9,0,1.7,0.1,2.5,0.4c2.6-1.2,5.6-2.8,9.2-5c2.9-1.7,5-2.9,6.2-3.6h3.7l-3.2,14.9c-0.4,1.7-0.7,3.2-1,4.5
		c-0.3,1.3-0.4,2.2-0.4,2.6c0,1.7,0.8,2.5,2.4,2.5c1.1,0,2-0.4,2.7-1.1c0.7-0.8,1.5-2.1,2.3-4.1h2.5c-2.5,7.4-6.2,11.1-11.1,11.1
		c-2.3,0-4.1-0.6-5.3-1.9c-1.2-1.3-1.8-2.8-1.8-4.7c0-1.4,1.1-7.1,3.3-16.9c-1.9,1.2-4.1,2.5-6.7,3.9c1,1.5,1.4,3.5,1.4,6
		c0,1.9-0.5,3.9-1.5,6c-1,2.1-2.5,3.9-4.5,5.4c-2,1.5-4.5,2.2-7.4,2.2C150.3,46.4,148.2,45.7,146.7,44.4z"/>
	<path class="text-fragment" id="text-letter7" d="M185.4,44.6c-1.2-1.2-1.8-3-1.8-5.4c0-1,0.2-2.3,0.5-3.9l4.1-19.3h8.6l-4.3,20.4c-0.1,0.5-0.2,1-0.2,1.5
		c0,1.8,0.6,2.6,1.8,2.6c1.1,0,2.1-0.5,2.9-1.4c0.8-0.9,1.4-2.2,1.9-3.9l4.1-19.3h8.6l-4.3,20.4c-0.2,0.6-0.2,1.2-0.2,1.9
		c0,0.8,0.2,1.4,0.6,1.7c0.4,0.3,1,0.5,1.9,0.5c0.6,0,1.1,0,1.4-0.1c0.3-0.1,0.5-0.2,0.6-0.2c-0.2,2-0.9,3.6-2.1,4.6
		c-1.2,1-2.8,1.6-4.6,1.6c-1.7,0-3-0.5-4-1.5c-1-1-1.6-2.4-1.8-4.2c-1.4,2.2-2.8,3.7-4.3,4.5c-1.5,0.8-3.1,1.2-4.6,1.2
		C188.1,46.4,186.5,45.8,185.4,44.6z M193.9,11.7c-1.4-0.9-2-2.2-2-3.8c0-1.3,0.4-2.4,1.1-3.2c0.7-0.8,1.7-1.2,2.9-1.2
		c1.2,0,2.1,0.3,2.7,0.8c0.7,0.6,1,1.4,1,2.4c0,1.3-0.5,2.2-1.4,2.9c0.5,0.2,1.3,0.2,2.4,0.2c1.9,0,3.7-0.5,5.3-1.6
		c1.6-1.1,2.9-2.9,3.9-5.4h2.5c-1.3,3.8-2.9,6.4-5,7.9c-2.1,1.5-4.6,2.3-7.7,2.3C197.2,13.1,195.3,12.7,193.9,11.7z"/>
	<path class="text-fragment" id="text-letter8" d="M226.3,43.8c-1.7-1.7-2.5-4.2-2.5-7.7c0-3.1,0.7-6.1,2-8.9c1.3-2.8,3.2-5.1,5.7-6.9c2.5-1.8,5.4-2.6,8.8-2.6
		l1,0.1c-0.6-0.8-1.6-1.8-2.9-3.1c-1.5-1.4-2.6-2.7-3.3-3.7s-1.1-2.1-1.1-3.4c0-1.5,0.5-2.6,1.6-3.4c1-0.7,2.7-1.1,4.9-1.1h9.1h1.9
		c1,0,1.8-0.1,2.3-0.2c0.5-0.1,0.9-0.4,1.1-0.8c0.3-0.4,0.5-1,0.8-1.9h2.6c-0.6,3.1-1.3,5.4-2.1,7c-0.8,1.5-1.8,2.6-3,3.1
		c-1.2,0.6-2.9,0.8-5.1,0.8h-5.8c-0.2,0-0.4,0.1-0.6,0.1c-0.1,0.1-0.2,0.3-0.2,0.6c0,0.2,0.3,0.7,1,1.6c1.5,1.8,2.7,3.7,3.8,5.8
		c1,2.1,1.6,4.5,1.6,7.3c0,3-0.6,6.1-1.8,9.2c-1.2,3.1-2.9,5.6-5.1,7.6c-2.2,2-4.7,3-7.6,3C230.4,46.3,228,45.5,226.3,43.8z
		 M239.8,37.9c1.1-2,1.9-4.3,2.4-6.8s0.8-4.5,0.8-5.8c0-1.5-0.2-2.6-0.5-3.1c-0.4-0.6-0.9-0.8-1.7-0.8c-1.8,0-3.2,1-4.4,2.9
		s-2.1,4.1-2.7,6.5c-0.6,2.4-0.9,4.3-0.9,5.7c0,1.7,0.2,2.9,0.7,3.5c0.5,0.6,1.3,0.9,2.4,0.9C237.4,40.9,238.7,39.9,239.8,37.9z"/>
	<path class="text-fragment" id="text-letter9" d="M251.9,44.1c-1.5-1.6-2.3-4-2.3-7.3c0-3,0.6-6.1,1.8-9.3c1.2-3.3,2.9-6,5.3-8.3c2.3-2.3,5.1-3.4,8.4-3.4
		c1.6,0,2.9,0.3,3.7,0.8c0.8,0.6,1.2,1.3,1.2,2.2v0.4l0.7-3.2h8.6l-4.3,20.4c-0.2,0.6-0.2,1.2-0.2,1.9c0,1.7,0.8,2.6,2.5,2.6
		c1.1,0,2.1-0.5,2.9-1.6c0.8-1,1.5-2.4,1.9-4.1h2.5c-1.5,4.3-3.3,7.3-5.5,8.8c-2.2,1.5-4.4,2.3-6.6,2.3c-1.7,0-3-0.5-4-1.4
		c-1-0.9-1.6-2.3-1.8-4.1c-1.2,1.6-2.5,3-3.9,4s-3.1,1.5-5.1,1.5C255.4,46.4,253.5,45.6,251.9,44.1z M264.5,39.2
		c1-0.9,1.6-2.2,2-3.9l2.9-13.6c0-0.5-0.2-1-0.6-1.5c-0.4-0.5-1-0.8-1.9-0.8c-1.6,0-3,0.9-4.3,2.8s-2.3,4.1-3,6.7
		c-0.7,2.6-1.1,4.9-1.1,6.9c0,2,0.3,3.3,0.9,3.8c0.6,0.6,1.3,0.8,2.1,0.8C262.5,40.6,263.5,40.1,264.5,39.2z"/>
	<path class="text-fragment" id="text-letter10" d="M283.7,43.8c-1.7-1.7-2.5-4.2-2.5-7.7c0-3.1,0.7-6.1,2-8.9c1.3-2.8,3.2-5.1,5.7-6.9c2.5-1.8,5.4-2.6,8.8-2.6
		l1,0.1c-0.6-0.8-1.6-1.8-2.9-3.1c-1.5-1.4-2.6-2.7-3.3-3.7s-1.1-2.1-1.1-3.4c0-1.5,0.5-2.6,1.6-3.4c1-0.7,2.7-1.1,4.9-1.1h9.1h1.9
		c1,0,1.8-0.1,2.3-0.2c0.5-0.1,0.9-0.4,1.1-0.8c0.3-0.4,0.5-1,0.8-1.9h2.6c-0.6,3.1-1.3,5.4-2.1,7c-0.8,1.5-1.8,2.6-3,3.1
		c-1.2,0.6-2.9,0.8-5.1,0.8h-5.8c-0.2,0-0.4,0.1-0.6,0.1c-0.1,0.1-0.2,0.3-0.2,0.6c0,0.2,0.3,0.7,1,1.6c1.5,1.8,2.7,3.7,3.8,5.8
		c1,2.1,1.6,4.5,1.6,7.3c0,3-0.6,6.1-1.8,9.2c-1.2,3.1-2.9,5.6-5.1,7.6c-2.2,2-4.7,3-7.6,3C287.7,46.3,285.4,45.5,283.7,43.8z
		 M297.2,37.9c1.1-2,1.9-4.3,2.4-6.8s0.8-4.5,0.8-5.8c0-1.5-0.2-2.6-0.5-3.1c-0.4-0.6-0.9-0.8-1.7-0.8c-1.8,0-3.2,1-4.4,2.9
		s-2.1,4.1-2.7,6.5c-0.6,2.4-0.9,4.3-0.9,5.7c0,1.7,0.2,2.9,0.7,3.5c0.5,0.6,1.3,0.9,2.4,0.9C294.7,40.9,296.1,39.9,297.2,37.9z"/>
  <!--made by @vityaschel-->
	<path class="text-fragment" id="text-letter11" d="M309.3,44.1c-1.5-1.6-2.3-4-2.3-7.3c0-3,0.6-6.1,1.8-9.3c1.2-3.3,2.9-6,5.3-8.3c2.3-2.3,5.1-3.4,8.4-3.4
		c1.6,0,2.9,0.3,3.7,0.8c0.8,0.6,1.2,1.3,1.2,2.2v0.4l0.7-3.2h8.6l-4.3,20.4c-0.2,0.6-0.2,1.2-0.2,1.9c0,1.7,0.8,2.6,2.5,2.6
		c1.1,0,2.1-0.5,2.9-1.6c0.8-1,1.5-2.4,1.9-4.1h2.5c-1.5,4.3-3.3,7.3-5.5,8.8c-2.2,1.5-4.4,2.3-6.6,2.3c-1.7,0-3-0.5-4-1.4
		c-1-0.9-1.6-2.3-1.8-4.1c-1.2,1.6-2.5,3-3.9,4s-3.1,1.5-5.1,1.5C312.7,46.4,310.8,45.6,309.3,44.1z M321.9,39.2
		c1-0.9,1.6-2.2,2-3.9l2.9-13.6c0-0.5-0.2-1-0.6-1.5c-0.4-0.5-1-0.8-1.9-0.8c-1.6,0-3,0.9-4.3,2.8s-2.3,4.1-3,6.7
		c-0.7,2.6-1.1,4.9-1.1,6.9c0,2,0.3,3.3,0.9,3.8c0.6,0.6,1.3,0.8,2.1,0.8C319.9,40.6,320.9,40.1,321.9,39.2z"/>
	<path class="text-fragment" id="text-letter12" d="M340.6,44.6c-1.2-1.2-1.8-3-1.8-5.4c0-1,0.2-2.3,0.5-3.9l4.1-19.3h8.6l-4.3,20.4c-0.1,0.5-0.2,1-0.2,1.5
		c0,1.8,0.6,2.6,1.8,2.6c1.1,0,2.1-0.5,2.9-1.4c0.8-0.9,1.4-2.2,1.9-3.9l4.1-19.3h8.6l-4.3,20.4c-0.2,0.6-0.2,1.2-0.2,1.9
		c0,0.8,0.2,1.4,0.6,1.7c0.4,0.3,1,0.5,1.9,0.5c0.6,0,1.1,0,1.4-0.1c0.3-0.1,0.5-0.2,0.6-0.2c-0.2,2-0.9,3.6-2.1,4.6
		c-1.2,1-2.8,1.6-4.6,1.6c-1.7,0-3-0.5-4-1.5c-1-1-1.6-2.4-1.8-4.2c-1.4,2.2-2.8,3.7-4.3,4.5c-1.5,0.8-3.1,1.2-4.6,1.2
		C343.4,46.4,341.8,45.8,340.6,44.6z M349.2,11.7c-1.4-0.9-2-2.2-2-3.8c0-1.3,0.4-2.4,1.1-3.2c0.7-0.8,1.7-1.2,2.9-1.2
		c1.2,0,2.1,0.3,2.7,0.8c0.7,0.6,1,1.4,1,2.4c0,1.3-0.5,2.2-1.4,2.9c0.5,0.2,1.3,0.2,2.4,0.2c1.9,0,3.7-0.5,5.3-1.6
		c1.6-1.1,2.9-2.9,3.9-5.4h2.5c-1.3,3.8-3,6.4-5,7.9c-2.1,1.5-4.6,2.3-7.7,2.3C352.5,13.1,350.6,12.7,349.2,11.7z"/>
</g>
<image href='./anonymous-mask.png' id="anonymous-mask" />
</svg>
